<?xml version="1.0" encoding="utf-8"?>
<!-- Generator: Adobe Illustrator 26.3.1, SVG Export Plug-In . SVG Version: 6.00 Build 0)  -->
<svg version="1.1" id="Layer_1" xmlns="http://www.w3.org/2000/svg" xmlns:xlink="http://www.w3.org/1999/xlink" x="0px" y="0px"
	 viewBox="0 0 100 100" style="enable-background:new 0 0 100 100;" xml:space="preserve">
<style type="text/css">
	.st0{fill:#FFFFFF;}
	.st1{fill:#A2BAC7;}
	.st2{fill:#CBD8E1;}
	.st3{fill:#F2D7C1;}
	.st4{fill:#F5AA9F;}
	.st5{fill:#FFF9EB;}
	.st6{fill:#D0A58B;}
	.st7{fill:#7B9CAE;}
	.st8{fill:#EEBAB3;}
	.st9{fill:#E3AE97;}
	.st10{fill:#99321E;}
</style>
<g>
	<path class="st0" d="M94.28,67.91c-0.87-0.71-1.86-1.17-2.86-1.66c-1.19-0.59-2.38-1.17-3.57-1.76c-0.51-0.25-1.02-0.5-1.53-0.75
		c0.7-2.94-0.32-6.08-2.19-8.42c-1.43-1.79-3.37-3.05-5.47-3.97c0.16-0.83-0.41-1.76-1.49-1.88c-4.23-0.49-8.46-1.15-12.61-2.08
		c-0.82-0.18-1.14-0.35-1.53-1.1c-0.42-0.81-0.79-1.63-1.25-2.42c-0.91-1.56-1.99-3.02-3.19-4.38c-0.08-0.25-0.15-0.51-0.23-0.77
		c0.06-0.02,0.12-0.03,0.17-0.06c0.76-0.33,1.02-1.04,0.9-1.83c-0.76-5-3.13-9.67-6.64-13.3c-0.41-0.42-0.95-0.52-1.43-0.39
		c-1.32-1.93-2.89-3.7-4.68-5.24c-0.58-0.5-1.27-0.56-1.89-0.21c-1.03-1.19-2.29-2.19-3.68-2.92c-1.22-0.63-2.86-1.22-4.29-1.08
		c-0.64-0.81-1.69-1.36-2.79-1.41c-1.08-0.05-2.21,0.22-3.27,0.42c-1.13,0.21-2.25,0.47-3.36,0.78c-1.97,0.54-4.54,1.08-5.91,2.73
		c-0.45,0.54-0.74,1.14-0.94,1.77c-4.71,7.28-6.82,16.22-5.81,24.84c0.06,0.54,0.29,1.02,0.72,1.3c-0.08,1-0.13,2.01-0.14,3.01
		c-0.01,1.99,0.15,3.97,0.44,5.94c0.18,1.2,0.36,2.45,0.95,3.46c0,2.12,0.2,4.23,0.61,6.31c-0.05,1.22,0.15,2.41,0.65,3.51
		c0,0-0.01,0-0.01,0.01c-1.8,0.72-3.6,1.42-5.38,2.17C11,69.19,9.52,69.98,8.53,71.4c-0.52,0.74-0.81,1.64-0.84,2.55
		c-0.09,0.26-0.17,0.52-0.24,0.79c-0.31,1.18-0.62,2.6-0.28,3.8c0.32,1.12,1.19,1.67,2.14,2.12c0.17,0.44,0.54,0.76,1.03,0.97
		c2.67,1.12,5.5,1.8,8.32,2.5c0.12,0.17,0.28,0.32,0.46,0.42c2.74,1.43,5.57,2.7,8.47,3.78c1.31,0.49,2.93,1.37,4.33,0.87
		c0.66-0.24,1.19-0.73,1.81-1.06c0.55-0.3,1.12-0.53,1.72-0.72c1.76-0.57,3.6-0.96,5.45-1.25c0.26,0.36,0.67,0.62,1.21,0.64
		c5.71,0.23,11.48,0.24,17.17,0.78c0.95,0.09,1.9,0.21,2.84,0.38c0.8,0.29,1.61,0.55,2.42,0.79c0.83,0.24,1.66,0.45,2.5,0.63
		c0.43,0.19,0.86,0.39,1.27,0.62c0.65,0.35,1.27,0.74,2.05,0.56c0.54-0.13,0.91-0.44,1.12-0.83c0.57-0.23,1.06-0.58,1.64-0.87
		c0.67-0.33,1.44-0.49,2.18-0.58c1.27-0.15,2.55-0.18,3.82-0.32c0.39,0.06,0.78,0.12,1.18,0.17c0.86,0.11,1.69,0.21,2.51-0.16
		c0.73-0.33,1.14-0.97,1.68-1.53c0.45-0.46,0.94-0.85,1.48-1.19c2.3-1.43,5.07-1.93,7.7-2.4c0.52-0.09,0.95-0.6,1.08-1.08
		c0.68-2.47,1.11-5.01,1.29-7.56C96.19,71.95,96.17,69.47,94.28,67.91z"/>
	<path class="st1" d="M74.62,85.56c0.47-5.53,1.91-10.93,3.58-16.21c0.2-0.63,0.4-1.27,0.61-1.9c-0.01,0-0.01,0-0.02-0.01
		c-0.44-0.15-0.87-0.44-1.33-0.49c-1.04-0.11-2.07-0.08-3.1-0.3c-1.13-0.24-2.22-0.61-3.28-1.07c-0.88-0.38-1.81,0.61-1.59,1.46
		c0.3,1.14,0.93,2.09,1.65,3.01c0.58,0.74,1.32,1.48,1.67,2.37c0.19,0.49,0.18,0.97-0.08,1.35c-0.56-0.66-1.12-1.32-1.68-1.99
		c-0.77-0.91-2.52-0.07-2.12,1.12l0.27,0.8c-0.56,0.21-0.94,0.76-0.87,1.32c-0.61-0.05-1.22-0.1-1.82-0.15
		c-0.74-0.06-1.42,0.73-1.29,1.44c0,0-0.01,0-0.01,0.01c-0.21,0.13-0.49,0.21-0.71,0.3c-0.53,0.2-1.07,0.36-1.62,0.47
		c-0.84,0.16-1.73,0.15-2.49-0.27c-0.73-0.39-0.99-0.91-1.14-1.69c-0.19-0.96-0.53-1.87-1.43-2.37c-0.86-0.48-1.85-0.38-2.79-0.26
		c-1.15,0.14-2.31,0.28-3.46,0.43c-1.68,0.21-3.36,0.41-5.04,0.62c-0.21-0.37-0.59-0.63-1.02-0.64c-3.48-0.07-6.96-0.3-10.43-0.67
		c-0.02-0.51-0.28-0.99-0.84-1.09l-8.47-1.56c-1.38-0.26-2.77-0.5-4.15-0.77c-0.43-0.08-0.88-0.17-1.3-0.31
		c0.21-0.6,0.02-1.33-0.75-1.57c-1.81-0.56-3.7-0.38-5.47,0.24c-1.3,0.46-2.63,1.04-3.86,1.74c0.05-0.06,0.1-0.13,0.16-0.19
		c-1.15,0.9-2.22,1.85-2.96,3.06C6,74.13,5.65,77.18,5.71,80.11c0.01,0,0.02,0,0.03,0c0.04,0,0.08,0,0.13-0.01
		c0.19,0.59,0.66,1.1,1.19,1.41c2.08,1.21,4.88,0.1,7.14,0.41c3.71,0.51,6.84,3.22,10.16,4.75c2.01,0.92,4.12,1.39,6.34,1.11
		c0.66-0.08,1.01-0.8,0.93-1.42c3.98,0.49,8.01,0.36,11.95-0.42c2.47,0.5,4.97,0.86,7.48,1.02c1.31,0.08,2.62,0.11,3.93,0.1
		c1.28-0.02,2.62-0.25,3.89-0.18c0.5,0.03,0.93,0.38,1.38,0.6c0.55,0.26,1.1,0.49,1.68,0.68c1.15,0.36,2.35,0.56,3.54,0.73
		c1.31,0.19,2.63,0.35,3.94,0.53c1.2,0.16,2.43,0.41,3.64,0.42c0.51,0,1.01-0.05,1.49-0.18C74.47,88.3,74.51,86.93,74.62,85.56z"/>
	<path class="st1" d="M95.92,70.38c0-0.13,0.02-0.25,0.05-0.36c-0.13-0.34-0.31-0.69-0.5-0.93c-0.45-0.58-0.95-1.03-1.48-1.43
		c-0.55-0.42-1.12-0.81-1.69-1.21c-0.3,0.1-0.59,0.22-0.86,0.4c-0.33-0.19-0.66-0.39-0.99-0.57c-1.53-0.86-3.11-1.65-4.71-2.38
		c-0.11,0.34-0.24,0.66-0.4,0.98c-0.22,0.44-0.81,0.58-1.23,0.4c-0.32-0.14-0.56-0.45-0.6-0.8c-0.2-0.03-0.39-0.15-0.53-0.28
		c-0.19-0.18-0.28-0.44-0.29-0.7c0-0.01,0-0.03,0-0.04c-0.71,0.35-1.2,1.07-1.82,1.56c-1.09,0.85-2.45,1.35-3.82,1.51
		c-0.48,0.06-0.98,0.06-1.47,0.03c-1.17,3.49-2.2,7.03-3,10.6c-0.72,3.21-1.27,6.56-1.29,9.89c0.2-0.27,0.36-0.56,0.46-0.87
		c1.16,0.25,2.35,0.35,3.54,0.31c1.74,0.35,3.5,0.58,5.28,0.67c0.16-0.06,0.33-0.1,0.54-0.1c1.23,0,2.27-0.75,3.34-1.27
		c0.95-0.47,1.91-0.93,2.89-1.35c2.2-0.94,4.55-1.69,6.96-1.24c0.18,0.03,0.33,0.11,0.46,0.21c0.42-0.25,0.7-0.59,0.83-1.17
		c0.24-1.04,0.26-2.18,0.31-3.24C96.04,76.12,95.88,73.25,95.92,70.38z"/>
	<path class="st2" d="M94.59,69.1c-0.55-0.94-1.81-1.35-2.75-1.76c-1.16-0.5-2.35-0.91-3.57-1.23c-0.81-0.22-1.73,0.87-0.97,1.52
		c1.48,1.25,3.03,2.39,4.67,3.42c-0.31,0.08-0.64,0.12-0.92,0.17c-0.52,0.09-0.73,0.49-0.7,0.9c-1.61,0.65-3.49,0.73-5.18,0.59
		c-2.78-0.22-5.62-1.12-8.29,0.14c-0.56,0.27-0.64,1.08-0.21,1.49c0,0-0.01,0-0.01,0.01c-0.08,0.05-0.16,0.1-0.25,0.14
		c-0.22,0.11-0.44,0.21-0.67,0.31c-0.56,0.25-1.14,0.5-1.74,0.7c-1.15,0.39-2.37,0.66-3.58,0.41c-1.16-0.24-1.74,1.53-0.57,1.77
		c2.24,0.46,4.33-0.19,6.38-1.07c0.83-0.36,1.82-0.7,2.22-1.59c0.12-0.26,0.16-0.54,0.15-0.81c1.13-0.28,2.33-0.17,3.48-0.02
		c1.58,0.21,3.14,0.47,4.74,0.44c2.31-0.04,4.54-0.65,6.3-2.06c0.41-0.18,0.78-0.42,1.08-0.77C94.84,71.07,95.1,69.97,94.59,69.1z"
		/>
	<path class="st2" d="M89.95,75.27c-0.48-0.13-1.01,0.11-1.17,0.6c-0.34,1.09-0.56,2.23-0.66,3.37c-0.04,0.49,0.4,0.97,0.89,0.97
		c0.52,0,0.92-0.37,0.97-0.89c0.03-0.4,0.09-0.81,0.16-1.21c0.11-0.56,0.24-1.12,0.41-1.67C90.7,75.97,90.44,75.4,89.95,75.27z"/>
	<path class="st2" d="M92.21,75.2c-0.03-0.12-0.09-0.22-0.18-0.31c-0.08-0.09-0.18-0.16-0.29-0.2c-0.11-0.06-0.23-0.09-0.35-0.09
		c-0.24,0-0.49,0.07-0.67,0.25c-0.05,0.06-0.1,0.12-0.15,0.18c-0.09,0.14-0.14,0.3-0.15,0.46c-0.06,0.43-0.12,0.85-0.18,1.28
		c-0.01,0.13,0.01,0.25,0.07,0.36c0.03,0.12,0.09,0.22,0.18,0.31c0.08,0.09,0.18,0.16,0.29,0.2c0.11,0.06,0.23,0.09,0.35,0.09
		c0.24,0,0.49-0.07,0.67-0.25l0.15-0.18c0.09-0.14,0.14-0.3,0.15-0.46c0.06-0.43,0.12-0.85,0.18-1.28
		C92.28,75.43,92.26,75.31,92.21,75.2z"/>
	<path class="st2" d="M83.47,70.4c-0.05-0.06-0.09-0.13-0.14-0.19c-0.11-0.12-0.24-0.2-0.4-0.26c-0.27-0.05-0.54-0.1-0.81-0.16
		c-0.12-0.04-0.25-0.05-0.37-0.03c-0.12,0-0.24,0.03-0.35,0.1c-0.11,0.05-0.2,0.13-0.27,0.23c-0.09,0.09-0.15,0.19-0.18,0.31
		c-0.01,0.08-0.03,0.16-0.04,0.25c-0.01,0.17,0.03,0.33,0.11,0.47l0.14,0.19c0.11,0.12,0.24,0.21,0.4,0.26
		c0.27,0.05,0.54,0.1,0.81,0.16c0.12,0.04,0.25,0.05,0.37,0.03c0.12,0,0.24-0.03,0.35-0.1c0.11-0.05,0.2-0.13,0.27-0.23
		c0.09-0.09,0.15-0.19,0.18-0.31c0.01-0.08,0.03-0.16,0.04-0.25C83.58,70.7,83.55,70.55,83.47,70.4z"/>
	<path class="st2" d="M87.45,69.39c-0.04-0.16-0.11-0.3-0.22-0.42c-0.06-0.05-0.12-0.1-0.18-0.15c-0.14-0.09-0.3-0.14-0.46-0.15
		l-0.7-0.03c-0.13-0.01-0.25,0.01-0.36,0.07c-0.12,0.03-0.22,0.09-0.31,0.18c-0.09,0.08-0.16,0.18-0.2,0.29
		c-0.06,0.11-0.09,0.23-0.09,0.35c0.01,0.08,0.02,0.17,0.02,0.25c0.04,0.16,0.11,0.3,0.22,0.42l0.18,0.15
		c0.14,0.09,0.3,0.14,0.46,0.15l0.7,0.03c0.13,0.01,0.25-0.01,0.36-0.07c0.12-0.03,0.22-0.09,0.31-0.18
		c0.09-0.08,0.16-0.18,0.2-0.29c0.06-0.11,0.09-0.23,0.09-0.35C87.47,69.56,87.46,69.48,87.45,69.39z"/>
	<path class="st2" d="M77,69.72c-1.2-0.05-1.27,1.81-0.08,1.86C78.12,71.62,78.2,69.76,77,69.72z"/>
	<path class="st3" d="M82.6,52.77c-0.06-0.03-0.13-0.05-0.19-0.07c-0.06-0.68-0.53-1.31-1.23-1.71c-1.31-0.76-2.78-1.32-4.26-1.66
		c-1.01-0.23-2.23-0.5-3.35-0.48c-0.74-0.29-1.62-0.41-2.22-0.56c-1.68-0.42-3.36-0.84-5.04-1.25c-0.96-0.24-2.16-0.69-3.21-0.59
		c-0.54-1.17-1.27-2.25-2.15-3.19c0.01-0.21-0.01-0.42-0.03-0.63c-0.11-1.14-0.45-2.24-0.97-3.25c0.83-0.77,0.31-2.17-0.08-3.07
		c-0.23-0.53-0.51-1.04-0.81-1.52c0.2-0.26,0.31-0.6,0.3-1c-0.03-0.96-0.49-2.01-0.85-2.89c-0.8-1.93-2-3.65-3.46-5.09
		c-1.13-2.87-2.97-5.37-5.31-7.29c0.14-0.36,0.07-0.8-0.33-1.11c-1.21-0.95-2.61-1.61-4.11-1.91c-0.11-0.02-0.22-0.02-0.33,0
		c-1.8-0.58-3.65-0.94-5.54-1.08c0.18-0.19,0.35-0.4,0.51-0.62c0.34-0.47,0.06-1.25-0.5-1.39c-0.92-0.23-1.79-0.19-2.62,0.02
		c0.37-0.55,0.73-1.11,1.08-1.68c0.39-0.65-0.18-1.65-0.99-1.41c-1.72,0.52-3.36,1.26-4.88,2.19c0.13-0.46,0.22-0.93,0.29-1.42
		c0.09-0.69-0.79-1.21-1.36-0.86c-1.98,1.21-3.54,2.92-4.57,4.93c-1.22,0.37-2.3,1.14-3.08,2.15c-0.32-0.24-0.78-0.31-1.18,0.01
		c-2.38,1.87-4.48,4.07-6.27,6.51c-1.75,2.4-3.72,5.36-3.91,8.4c-0.02,0.26,0.08,0.47,0.22,0.63c-0.76,1.47-1.3,3.05-1.56,4.7
		c-0.16,1.02-0.32,2.27-0.08,3.28c0.23,0.96,1.11,1.51,2,1.15c-0.26,2.02-0.41,4.9,1.32,6.21c-0.03,0.31-0.06,0.63-0.07,0.94
		c-0.02,0.78-0.12,1.78,0.27,2.49c0.29,0.53,0.88,0.83,1.46,0.71c-0.44,3.69,0.18,7.49,1.87,10.86c0.15,0.3,0.39,0.44,0.65,0.48
		c0.4,1.05,0.82,2.1,1.27,3.13c0.48,1.09,1.06,2,2.18,2.5c0.56,0.25,1.19-0.3,1.21-0.85c0.01-0.23,0-0.46-0.01-0.69
		c0.96,1.39,2.12,2.7,3.61,3.45c0.76,0.38,1.93,0.85,2.78,0.49c0.94-0.41,0.88-1.46,0.56-2.27c-0.11-0.27-0.24-0.52-0.39-0.77
		c0.53,0.29,1.09,0.55,1.65,0.79c1.1,0.45,2.25,0.74,3.42,0.93c0.49,0.08,1.05,0.16,1.61,0.21c0.95,0.63,2.01,1.03,3.11,1.23
		c0.74,0.3,1.51,0.55,2.28,0.74c1.87,0.45,3.95,0.67,5.65-0.42c0.15-0.1,0.26-0.22,0.33-0.36c0.79,0.26,1.6,0.45,2.41,0.63
		c2.1,0.47,4.19,0.93,6.29,1.39c0.48,0.11,0.89-0.11,1.08-0.46c0.76,0.28,1.55,0.39,2.29,0.21c0.82-0.2,1.45-0.85,1.52-1.67
		c1.01,0.09,2.01-0.17,2.78-1.04c0.35-0.39,0.55-0.88,0.62-1.38c0.87,0.06,1.72-0.23,2.35-1.08c0.42-0.57,0.52-1.23,0.38-1.82
		c0.29-0.26,0.4-0.69,0.2-1.11c-1.45-3.16-4.84-4.57-7.92-5.66c-1.83-0.64-3.66-1.28-5.5-1.92c-0.39-0.14-0.8-0.29-1.21-0.42
		c0.02,0,0.04,0,0.06,0s0.04,0.01,0.05,0.01c5.1,0.77,9.98,2.66,14.29,5.49c0.38,0.25,0.75,0.19,1.01-0.02
		c0.4,0.21,0.8,0.42,1.2,0.63c0.81,0.43,1.6-0.41,1.42-1.06c0.16-0.24,0.21-0.55,0.07-0.84c0.93-0.05,1.78-0.33,2.25-1.08
		c0.04-0.07,0.07-0.13,0.1-0.2c0.35,0,0.71-0.01,1.06-0.04c0.72-0.06,1.57-0.09,2.1-0.66c0.5-0.54,0.55-1.11,0.37-1.64
		c0.84-0.05,1.68-0.13,2.51-0.26c0.8-0.13,1.6-0.3,2.39-0.51c0.64-0.17,1.32-0.34,1.8-0.83C84.19,54.59,83.64,53.29,82.6,52.77z
		 M28.64,14.15c-0.09,0.1-0.15,0.21-0.19,0.32c-0.01-0.03-0.03-0.05-0.05-0.08c0.34-0.57,0.73-1.1,1.17-1.59
		C29.31,13.29,29,13.74,28.64,14.15z"/>
	<path class="st4" d="M48.88,24.21c-1.03-4.07-6.47-4.93-9.89-3.82c-1.25,0.4-2.74,1.13-3.8,2.16c-0.1-0.08-0.22-0.14-0.37-0.18
		c-2.21-0.52-4.49-0.59-6.72-0.16c-2.01,0.39-4.26,1.17-5.77,2.62c-2.93,2.83-1.4,7.58,1.95,9.31c1.74,0.89,3.67,1.11,5.58,0.94
		c-0.23,1.9,0.61,3.9,1.64,5.46c1.23,1.84,2.96,3.43,5.12,4.07c1.88,0.56,4.07,0.34,5.73-0.72c2.05-1.31,2.78-3.52,2.95-5.86
		c0.16-2.18-0.2-4.37-0.98-6.4c1.12-0.06,2.23-0.63,2.99-1.51C48.63,28.61,49.38,26.2,48.88,24.21z"/>
	<path class="st5" d="M20.93,17.58c-2.26,0.39-4.33,1.82-5.45,3.83c-0.28,0.51-0.69,1.15-0.42,1.73c0.09,0.18,0.23,0.31,0.39,0.42
		c-0.79,0.77-1.52,1.6-2.14,2.53c-0.73,1.11-1.3,2.35-1.56,3.66c-0.12,0.63-0.25,1.31,0.01,1.92c0.26,0.6,0.85,1.06,1.53,1
		c0.5-0.04,0.94-0.34,0.97-0.89c0.02-0.42-0.33-0.92-0.78-0.96c0-0.02,0-0.04-0.01-0.08c0.01-0.11,0.02-0.22,0.04-0.33
		c0.04-0.26,0.1-0.51,0.17-0.76c0.12-0.44,0.28-0.87,0.47-1.28c0.43-0.92,1.03-1.79,1.7-2.55c1.39-1.57,3.09-2.83,4.77-4.07
		c0.87-0.65-0.15-1.95-1.07-1.5c-0.4,0.2-0.81,0.4-1.21,0.59c0.85-0.74,1.89-1.25,3.02-1.44C22.53,19.19,22.11,17.38,20.93,17.58z"
		/>
	<path class="st5" d="M15.94,25.95c-3.07,2.93-5.02,6.78-5.63,10.97c-0.07,0.46,0.31,0.82,0.73,0.93c-0.12,0.39-0.25,0.77-0.35,1.17
		c-0.25,0.92-0.37,2.11,0.79,2.46c1.11,0.34,1.86-0.6,2.18-1.53c0.26-0.72-0.37-1.21-0.96-1.18c0-0.01,0.01-0.03,0.01-0.04
		c0.17-0.57,0.36-1.14,0.57-1.7c0.42-1.12,0.9-2.22,1.45-3.28c0.44-0.86-0.45-1.67-1.15-1.37c0.89-1.89,2.11-3.61,3.62-5.06
		C18.06,26.49,16.81,25.12,15.94,25.95z"/>
	<path class="st5" d="M15.16,39.81c-0.27-0.12-0.64-0.11-0.9,0.05c0.18-1,0.45-1.98,0.77-2.93c0.38-1.14-1.39-1.7-1.77-0.57
		c-0.67,1.98-1.07,4.06-1.16,6.15c-0.02,0.51-0.03,1.03,0.34,1.43c0.15,0.16,0.33,0.26,0.53,0.31c0,0.02-0.01,0.05-0.01,0.07
		c-0.07,0.5,0.42,0.95,0.89,0.97c0.54,0.02,0.9-0.39,0.97-0.89c0.16-1.18,0.46-2.34,0.85-3.46C15.8,40.49,15.57,39.99,15.16,39.81z"
		/>
	<path class="st5" d="M16.45,43.8c-0.1-0.2-0.32-0.39-0.54-0.45c-0.24-0.06-0.5-0.06-0.72,0.06c-0.21,0.13-0.36,0.3-0.45,0.54
		c-0.2,0.56-0.33,1.14-0.43,1.72c-0.01,0.13,0.01,0.25,0.07,0.36c0.03,0.12,0.09,0.22,0.18,0.31c0.15,0.17,0.41,0.3,0.65,0.3
		s0.49-0.07,0.67-0.25l0.15-0.18c0.06-0.09,0.09-0.19,0.12-0.29c0.09-0.48,0.21-0.95,0.38-1.41C16.6,44.3,16.56,44.01,16.45,43.8z"
		/>
	<path class="st5" d="M56.4,27.21c-0.54-0.62-1.11-1.2-1.7-1.77c0.58-0.1,0.91-0.83,0.64-1.35c-1.23-2.35-3.11-4.29-5.38-5.6
		c0.43-0.39,0.38-1.17-0.13-1.46c-3.39-1.96-7.24-2.98-11.16-2.89c-1.19,0.03-1.27,1.89-0.08,1.86c2.79-0.06,5.54,0.46,8.09,1.54
		c-0.49,0.41-0.52,1.35,0.27,1.62c2.22,0.77,4.15,2.16,5.57,3.99c-0.33-0.11-0.66-0.23-0.98-0.38c-1.03-0.46-1.55,1.07-0.78,1.67
		c1.55,1.21,2.98,2.57,4.28,4.05C55.82,29.36,57.19,28.1,56.4,27.21z"/>
	<path class="st5" d="M58.39,31.76c-1.34-1.63-3.03-3-4.91-3.97c-0.43-0.22-1.02-0.18-1.28,0.28c-0.23,0.4-0.18,1.05,0.28,1.28
		c0.9,0.46,1.74,1.01,2.53,1.64c0.04,0.03,0.09,0.07,0.13,0.1c0.03,0.02,0.17,0.15,0.04,0.03c0.09,0.08,0.19,0.16,0.28,0.25
		c0.18,0.17,0.36,0.34,0.54,0.51c0.36,0.36,0.7,0.74,1.03,1.13c0.31,0.38,0.97,0.4,1.31,0.05C58.71,32.7,58.72,32.16,58.39,31.76z"
		/>
	<path class="st5" d="M59.82,35.57c-0.75-0.83-1.62-1.56-2.56-2.16c-0.41-0.26-1.03-0.16-1.28,0.28c-0.25,0.43-0.16,1.01,0.28,1.28
		c0.41,0.25,0.8,0.54,1.17,0.84c0.37,0.31,0.71,0.65,1.03,1.01c0.33,0.36,0.96,0.41,1.31,0.05C60.13,36.53,60.17,35.96,59.82,35.57z
		"/>
	<path class="st5" d="M61.96,42.51c-0.87-1.39-1.83-2.72-2.88-3.97c-0.31-0.37-0.97-0.4-1.31-0.05c-0.37,0.37-0.39,0.91-0.05,1.31
		c0.49,0.59,0.97,1.19,1.42,1.81c0.05,0.07,0.11,0.15,0.16,0.22c0.02,0.03,0.04,0.06,0.06,0.09c0.11,0.16,0.22,0.32,0.33,0.48
		c0.22,0.32,0.43,0.65,0.64,0.98c0.26,0.41,0.8,0.65,1.26,0.38C61.98,43.52,62.23,42.95,61.96,42.51z"/>
	<path class="st5" d="M61.5,43.01c-0.46-0.69-0.97-1.33-1.56-1.91c-0.17-0.17-0.4-0.29-0.65-0.3c-0.23-0.01-0.5,0.08-0.67,0.25
		s-0.3,0.4-0.3,0.65c0,0.24,0.07,0.49,0.25,0.67c0.44,0.44,0.85,0.92,1.21,1.43c0.02,0.03,0.05,0.07,0.07,0.1
		c0.05,0.11,0.13,0.2,0.23,0.27c0.09,0.09,0.19,0.15,0.31,0.18c0.22,0.07,0.52,0.05,0.72-0.06c0.2-0.12,0.39-0.3,0.45-0.54
		C61.62,43.51,61.63,43.22,61.5,43.01z"/>
	<path class="st5" d="M69.05,48.59c-0.66-0.05-1.32-0.12-1.98-0.21c-0.06-0.11-0.14-0.21-0.25-0.3c-1.78-1.4-4.07-2.15-6.33-2.08
		c-0.5,0.02-0.95,0.36-0.97,0.89c-0.02,0.48,0.39,0.98,0.89,0.97c0.92-0.03,1.81,0.1,2.65,0.35c-0.1,0.12-0.18,0.26-0.2,0.42
		c-0.07,0.41,0.16,0.96,0.62,1.05c1.82,0.36,3.65,0.62,5.49,0.77C70.17,50.55,70.24,48.69,69.05,48.59z"/>
	<path class="st5" d="M76.08,49.89c-2.43-1.07-5.07-1.66-7.72-1.72c-1.19-0.03-1.27,1.83-0.08,1.86c2.5,0.06,4.94,0.62,7.23,1.63
		c0.46,0.2,1.03-0.16,1.17-0.6C76.85,50.54,76.54,50.1,76.08,49.89z"/>
	<path class="st5" d="M81.03,52.62c-0.91-1.23-2.48-1.68-3.88-2.09c-1.61-0.47-3.38-0.84-5.02-0.27c-0.47,0.17-0.82,0.59-0.7,1.12
		c0.1,0.45,0.64,0.86,1.12,0.7c1.34-0.47,2.71-0.16,4.03,0.23c1.11,0.32,2.36,0.61,3.08,1.58c0.3,0.4,0.97,0.37,1.31,0.05
		C81.38,53.56,81.33,53.02,81.03,52.62z"/>
	<path class="st5" d="M83.75,52.97c-0.78-0.49-1.72-0.76-2.64-0.73c-0.25,0.01-0.48,0.07-0.67,0.25c-0.17,0.15-0.3,0.41-0.3,0.65
		s0.07,0.49,0.25,0.67c0.17,0.17,0.4,0.31,0.65,0.3c0.22-0.01,0.44,0.01,0.66,0.04c0.26,0.05,0.51,0.14,0.75,0.24
		c0.1,0.05,0.2,0.1,0.29,0.16c0.21,0.13,0.47,0.18,0.71,0.12c0.22-0.05,0.46-0.21,0.57-0.4C84.28,53.82,84.19,53.24,83.75,52.97z"/>
	<path class="st6" d="M86.57,57.57c-0.13-0.77-0.31-1.82-0.88-2.4c-0.83-0.84-1.91-0.21-2.41,0.62c-0.28,0.46-0.68,2.02-1.37,2.02
		c-0.23,0-0.47-0.27-0.64-0.4c-0.3-0.24-0.6-0.47-0.97-0.6c-0.99-0.33-1.96,0.32-2.82,0.72c-1.1,0.51-1.77,1.29-1.59,2.56
		c0,0.02,0.01,0.03,0.01,0.05c-0.09,0.07-0.18,0.14-0.25,0.24c-0.07,0.1-0.13,0.21-0.2,0.31c-0.24,0-0.48,0.01-0.73,0.05
		c-0.52,0.07-1.04,0.26-1.5,0.51c-0.43,0.23-0.64,0.82-0.38,1.26c0.1,0.18,0.26,0.31,0.44,0.4c-0.25,0.19-0.4,0.5-0.31,0.9
		c0.11,0.46,0.22,0.93,0.33,1.39c0.23,0.95,1.44,0.88,1.79,0.07c0.4-0.92,0.86-1.81,1.37-2.68c0.03-0.01,0.06-0.02,0.09-0.03
		c0.5,0.73,0.93,1.5,1.25,2.33c0.36,0.92,0.58,3.35,2.18,2.6c0.03-0.01,0.06-0.03,0.09-0.05c0.05,0.08,0.09,0.16,0.15,0.24
		c0.42,0.58,1.38,0.27,1.57-0.35c0.07-0.24,0.15-0.49,0.22-0.73c0.22-0.06,0.42-0.19,0.54-0.38c0.18-0.28,0.35-0.57,0.52-0.86
		c0.32,0.66,1.2,0.54,1.59,0.04c1.13-1.47,1.81-3.25,2.01-5.09C86.76,59.41,86.72,58.48,86.57,57.57z"/>
	<path class="st6" d="M70.5,69.53c-0.37-0.63-0.83-1.23-1.35-1.75c-0.51-0.51-1.16-1.17-1.9-1.31c-0.81-0.15-1.44,0.39-1.62,1.12
		c-0.58-0.07-1.21,0.07-1.64,0.46c-0.2,0.19-0.34,0.4-0.43,0.62c-0.53-0.1-1.02,0.38-1.06,0.89c-0.01,0.12,0,0.24,0,0.35
		c-0.38,0.04-0.75,0.18-1.06,0.42c-0.15,0.12-0.27,0.25-0.38,0.4c-0.36-0.04-0.7,0.05-0.98,0.37c-0.68-0.45-1.8,0.31-1.34,1.22
		c0.49,0.95,1.06,1.85,1.7,2.71c0.56,0.74,1.37,2.07,2.47,1.78c1.08-0.28,1.11-1.8,1.19-2.69c0.03-0.33,0.04-0.65,0.05-0.98
		c0.19,0.15,0.36,0.32,0.56,0.46c0.74,0.55,1.81,1.4,2.78,0.88c1.17-0.62,0.61-1.93,0.23-2.85c0.18,0.08,0.37,0.16,0.56,0.24
		c0.72,0.27,1.58,0.45,2.18-0.17C71.06,71.09,70.89,70.19,70.5,69.53z M67.94,69.65c0-0.13-0.04-0.26-0.11-0.39
		c-0.07-0.11-0.12-0.22-0.18-0.34c0.2,0.19,0.4,0.39,0.58,0.6c0.12,0.15,0.24,0.3,0.35,0.45c-0.06-0.02-0.11-0.04-0.16-0.06
		C68.25,69.83,68.1,69.74,67.94,69.65z"/>
	<path class="st7" d="M75.79,85.49c-0.24,0.07-0.48,0.14-0.72,0.23c-1.02,0.36-2,0.89-3.06,1.12c-2.11,0.46-3.86-1.58-6.01-0.89
		c-0.74,0.24-1,1.23-0.29,1.69l0.25,0.16c-0.23-0.1-0.47-0.21-0.69-0.34c-1.52-0.82-2.89-1.86-4.53-2.46
		c-0.47-0.17-0.98,0.15-1.16,0.58c-5.91-0.94-11.98-1.66-17.84-0.06c-1.15,0.32-0.74,2.13,0.42,1.81c6.19-1.7,12.63-0.67,18.85,0.35
		c0.24,0.04,0.47-0.06,0.64-0.22c1.11,0.62,2.16,1.36,3.31,1.91c1.75,0.83,3.66,1.23,5.6,1.23c0.9,0,1.34-1.2,0.54-1.71
		c-0.08-0.05-0.16-0.11-0.25-0.16c0.48,0.05,0.96,0.04,1.46-0.06c1.01-0.19,1.95-0.67,2.91-1.04c0.33-0.13,0.68-0.24,1.02-0.34
		C76.08,86.69,75.93,86.09,75.79,85.49z"/>
	<path class="st7" d="M95.33,80.56c-0.12-0.83-1.06-1.1-1.64-0.52c-0.26,0.26-0.4,0.65-0.42,1.03c-0.22-0.14-0.5-0.21-0.79-0.14
		c-2.03,0.52-4.07,1.05-6.04,1.78c-0.94,0.35-1.86,0.74-2.76,1.2c-0.44,0.23-0.88,0.47-1.31,0.72c-0.03,0.02-0.05,0.03-0.08,0.05
		c-1.88,0.18-3.76,0.45-5.62,0.8c-0.89,0.11-1.79,0.24-2.67,0.42c-0.24,0.05-0.48,0.11-0.71,0.17c0.22,0.72,0.48,1.44,0.74,2.15
		c0.66,0.18,1.34,0.33,2.02,0.46c2.34-0.34,4.76,0.08,7.18,0.27c1.66-1.89,3.69-3.33,5.94-4.29c0.28-0.1,0.56-0.21,0.83-0.33
		c0.18-0.07,0.36-0.14,0.55-0.2c-0.03,0-0.06,0-0.09,0c0.05-0.02,0.1-0.05,0.14-0.07c0.73-0.22,1.48-0.42,2.23-0.59
		c0.72-0.16,1.59-0.18,2.06-0.84c0.13-0.18,0.2-0.37,0.24-0.57C95.33,81.6,95.4,81.09,95.33,80.56z M78.23,87.17
		c0.67-0.06,1.35-0.12,2.02-0.17c0.09,0.05,0.18,0.09,0.29,0.09c0.02,0,0.03,0,0.05,0c-0.01,0.11-0.01,0.21,0.01,0.31
		C79.82,87.35,79.02,87.27,78.23,87.17z"/>
	<path class="st7" d="M60.95,86.24c-0.02-0.16-0.04-0.32-0.06-0.48c-0.05-0.2-0.13-0.42-0.23-0.61c-0.26-0.44-0.74-0.76-1.26-0.77
		c-0.09,0-0.17,0.01-0.26,0.03c0.23-0.96-1.11-1.68-1.68-0.71c-0.2,0.34-0.35,0.69-0.44,1.06c-0.28-0.12-0.67-0.14-0.96-0.21
		c-1.34-0.31-2.68-0.63-4.02-0.94c-0.61-0.14-1.13,0.38-1.19,0.91c-0.01,0-0.02,0-0.03,0c-1.27-0.08-2.52-0.34-3.79-0.54
		c-1.77-0.27-3.55-0.36-5.33-0.16c-0.44,0.05-0.89,0.11-1.33,0.19c-1.93,0.08-3.86,0.33-5.75,0.83c-1.13,0.14-2.25,0.28-3.38,0.43
		c-0.39,0.05-0.6,0.28-0.67,0.56c-0.04,0-0.09,0.01-0.13,0.01c-1.2,0.07-2.33-0.31-3.39-0.86c-1.98-1.04-3.79-2.49-6.04-2.92
		c-1.02-0.19-1.67,1.01-0.78,1.67c0.44,0.33,0.89,0.63,1.34,0.94c-1.39-0.69-2.69-1.52-4-2.36c-3.23-2.07-7.03-4.14-10.97-2.91
		c-1.13,0.35-0.72,2.17,0.42,1.81c3.95-1.23,7.56,1.41,10.72,3.42c3.37,2.14,7.02,3.55,11,4.03c0.6,0.07,0.9-0.33,0.91-0.79
		c0.44,0.27,0.92,0.35,1.41,0.32c0.08,0.06,0.17,0.12,0.28,0.15c1.72,0.62,3.31-0.4,4.82-1.11c0.79-0.37,1.62-0.68,2.47-0.93
		c0.97-0.07,1.94-0.11,2.91-0.11c1.29,0,2.57,0.08,3.85,0.21c0.09,0.26,0.28,0.46,0.6,0.51c3.39,0.47,6.8,0.68,10.23,0.59
		c0.43-0.01,0.77-0.35,0.89-0.74c0.12,0.21,0.34,0.39,0.56,0.43c0.51,0.09,0.96,0,1.35-0.35c0.03-0.02,0.06-0.06,0.08-0.08
		c0.03,1.07,1.47,1.9,2.35,1.25C62.25,87.42,61.72,86.19,60.95,86.24z"/>
	<path class="st8" d="M25.99,36.83c-0.46-0.76-1.24-1.16-2.07-1.38c-0.9-0.25-1.9-0.4-2.78-0.01c-0.08,0.04-0.15,0.08-0.23,0.13
		c-0.96,0.2-1.77,1.05-1.71,2.06c0.1,1.86,2.2,3.01,3.9,2.89c0.87-0.06,1.75-0.3,2.39-0.94C26.2,38.87,26.54,37.75,25.99,36.83z"/>
	<path class="st8" d="M53.17,29.37c-0.78-0.42-1.65-0.36-2.48-0.14c-0.9,0.25-1.84,0.62-2.4,1.41c-0.05,0.07-0.09,0.15-0.13,0.23
		c-0.72,0.66-0.98,1.8-0.42,2.65c1.03,1.55,3.43,1.46,4.83,0.49c0.72-0.5,1.35-1.15,1.58-2.03C54.4,31.01,54.12,29.87,53.17,29.37z"
		/>
	<path class="st2" d="M75.03,77.67c-0.18-0.18-0.39-0.27-0.65-0.3c-0.62-0.06-1.24-0.13-1.86-0.19c-0.23-0.02-0.5,0.09-0.67,0.25
		c-0.17,0.15-0.3,0.41-0.3,0.65s0.07,0.49,0.25,0.67s0.39,0.27,0.65,0.3c0.62,0.06,1.24,0.13,1.86,0.19
		c0.23,0.02,0.5-0.09,0.67-0.25c0.17-0.15,0.3-0.41,0.3-0.65C75.27,78.09,75.2,77.84,75.03,77.67z"/>
	<path class="st2" d="M78.7,76.45c-0.04-0.16-0.11-0.3-0.22-0.42l-0.18-0.15c-0.14-0.09-0.3-0.14-0.46-0.15l-0.35-0.01
		c-0.13-0.01-0.25,0.01-0.36,0.07c-0.12,0.03-0.22,0.09-0.31,0.18c-0.09,0.08-0.16,0.18-0.2,0.29c-0.06,0.11-0.09,0.23-0.09,0.35
		c0.01,0.08,0.02,0.17,0.02,0.25c0.04,0.16,0.11,0.3,0.22,0.42l0.18,0.15c0.14,0.09,0.3,0.14,0.46,0.15l0.35,0.01
		c0.13,0.01,0.25-0.01,0.36-0.07c0.12-0.03,0.22-0.09,0.31-0.18c0.09-0.08,0.16-0.18,0.2-0.29c0.06-0.11,0.09-0.23,0.09-0.35
		C78.72,76.62,78.71,76.54,78.7,76.45z"/>
	<path class="st2" d="M42.27,79.35c-2.39-1.36-4.88-2.55-7.44-3.57c-0.98-0.69-2.08-1.07-3.27-1.17c-0.74-0.06-1.08,0.68-0.89,1.25
		c-1.22-0.13-2.44-0.2-3.67-0.24c-2.35-0.29-4.7-0.59-7.04-1c-1.37-0.24-2.73-0.51-4.08-0.85c-1.02-0.26-2.08-0.57-2.91-1.25
		c-0.39-0.32-0.67-0.81-1.18-0.96c-0.23-0.07-0.47-0.06-0.7,0c0.18-0.28,0.54-0.49,0.8-0.64c0.94-0.54,2-0.78,3.04-1.03
		c1.16-0.28,0.75-2.09-0.42-1.81c-2.24,0.54-6.92,2.02-4.97,5.23c0.75,1.24,2.12,2.03,3.39,2.64c0.03,0.01,0.06,0.02,0.09,0.04
		c0.12,0.06,0.25,0.11,0.37,0.16c1.28,0.55,2.61,0.91,4,1.06c0.2,0.02,0.38-0.03,0.52-0.12c0.11,0.29,0.37,0.51,0.79,0.5
		c3.19-0.1,6.39-0.08,9.58,0.06c0.2,0.01,0.36-0.03,0.49-0.11c4.36,0.28,8.63,1.15,12.47,3.37C42.3,81.5,43.3,79.95,42.27,79.35z"/>
	<path class="st2" d="M53.1,77.34c-0.42-0.68-1-1.03-1.78-1.16c-0.34-0.05-0.66,0.17-0.83,0.47c-3.08-0.08-6.05,1.01-8.93,2.13
		c-0.47,0.18-0.6,0.85-0.38,1.26c0.26,0.49,0.79,0.57,1.26,0.38c2.99-1.16,6.31-2.45,9.56-1.76C52.71,78.82,53.56,78.1,53.1,77.34z"
		/>
	<path class="st2" d="M56.24,78.27c-0.29-0.14-0.61-0.1-0.88,0.06c-0.06-0.09-0.15-0.17-0.26-0.24c-0.41-0.24-1.04-0.18-1.28,0.28
		c-0.73,1.37-1.18,2.82-1.35,4.36c-0.04,0.39,0.27,0.82,0.65,0.92c0.36,0.1,0.89-0.01,1.07-0.38c0.17-0.36,0.35-0.72,0.53-1.08
		c0.1,0.18,0.27,0.33,0.49,0.39c0.45,0.12,1.05-0.1,1.17-0.6c0.22-0.93,0.36-1.89,0.4-2.85C56.79,78.77,56.57,78.42,56.24,78.27z"/>
	<path class="st2" d="M57.91,76.69c-0.04-0.16-0.11-0.3-0.22-0.42l-0.18-0.15c-0.14-0.09-0.3-0.14-0.46-0.15l-0.47-0.02
		c-0.13-0.01-0.25,0.01-0.36,0.07c-0.12,0.03-0.22,0.09-0.31,0.18c-0.09,0.08-0.16,0.18-0.2,0.29c-0.06,0.11-0.09,0.23-0.09,0.35
		c0.01,0.08,0.02,0.17,0.02,0.25c0.04,0.16,0.11,0.3,0.22,0.42l0.18,0.15c0.14,0.09,0.3,0.14,0.46,0.15l0.47,0.02
		c0.13,0.01,0.25-0.01,0.36-0.07c0.12-0.03,0.22-0.09,0.31-0.18c0.09-0.08,0.16-0.18,0.2-0.29c0.06-0.11,0.09-0.23,0.09-0.35
		C57.93,76.85,57.92,76.77,57.91,76.69z"/>
	<path class="st2" d="M48.15,75.55c-0.03-0.08-0.06-0.15-0.08-0.23c-0.08-0.14-0.18-0.26-0.32-0.35l-0.22-0.1
		c-0.16-0.05-0.33-0.06-0.49-0.02c-0.31,0.03-0.62,0.07-0.93,0.1c-0.12,0.02-0.23,0.07-0.32,0.15c-0.1,0.06-0.19,0.15-0.25,0.25
		c-0.07,0.1-0.11,0.22-0.12,0.34c-0.03,0.12-0.03,0.25,0,0.37c0.03,0.08,0.06,0.15,0.08,0.23c0.08,0.14,0.18,0.26,0.32,0.35
		l0.22,0.1c0.16,0.05,0.33,0.06,0.49,0.02c0.31-0.03,0.62-0.07,0.93-0.1c0.12-0.02,0.23-0.07,0.32-0.15
		c0.1-0.06,0.19-0.15,0.25-0.25c0.07-0.1,0.11-0.22,0.12-0.34C48.19,75.8,48.19,75.68,48.15,75.55z"/>
	<path class="st2" d="M44.28,76.9c-0.05-0.06-0.09-0.13-0.14-0.19c-0.11-0.12-0.24-0.2-0.4-0.26l-0.34-0.13
		c-0.12-0.04-0.25-0.05-0.37-0.03c-0.12,0-0.24,0.03-0.35,0.1c-0.11,0.05-0.2,0.13-0.27,0.23c-0.09,0.09-0.15,0.19-0.18,0.31
		c-0.01,0.08-0.03,0.16-0.04,0.25c-0.01,0.17,0.03,0.33,0.11,0.47c0.05,0.06,0.09,0.13,0.14,0.19c0.11,0.12,0.24,0.21,0.4,0.26
		c0.11,0.04,0.23,0.09,0.34,0.13c0.12,0.04,0.25,0.05,0.37,0.03c0.12,0,0.24-0.03,0.35-0.1c0.11-0.05,0.2-0.13,0.27-0.23
		c0.09-0.09,0.15-0.19,0.18-0.31c0.01-0.08,0.03-0.16,0.04-0.25C44.39,77.21,44.36,77.05,44.28,76.9z"/>
	<path class="st7" d="M52.02,73c-0.33,0.03-0.62,0.07-0.95,0.03c-0.9-0.12-1.34-0.29-2.14-0.69c-0.17-0.08-0.32-0.2-0.47-0.32
		c-0.37,0.04-0.74,0.07-1.11,0.11c-0.14-0.29-0.41-0.53-0.78-0.59c-1.69-0.28-3.38-0.55-5.08-0.83c-0.57-0.09-1.02,0.54-0.95,1.06
		c-2.36,0.28-4.69-0.64-6.94-1.31c-0.75-0.23-1.93-0.66-2.57-0.08c-2.18-0.23-4.33-0.63-6.45-1.22c-0.55-0.15-0.97,0.17-1.12,0.58
		c-1.41-0.58-2.69-1.45-3.74-2.58c-0.82-0.87-2.19,0.38-1.37,1.26c2.06,2.2,4.81,3.55,7.8,3.89c0.5,0.06,0.8-0.27,0.89-0.67
		c1.44,0.29,2.89,0.5,4.36,0.64c0.36,0.13,0.78,0.1,1.12-0.2c0,0,0,0,0-0.01c0.17,0.05,0.34,0.1,0.51,0.15
		c0.4,0.12,0.81,0.25,1.21,0.37c0.85,0.26,1.7,0.53,2.57,0.72c1.68,0.38,3.38,0.52,5.06,0.09c0.33-0.08,0.59-0.34,0.68-0.66
		l2.75,0.45c0.01,0.06,0.02,0.11,0.03,0.17c0.15,0.53,0.59,0.75,1.12,0.7c1.86-0.19,3.71-0.37,5.57-0.56
		c0.43-0.04,0.64-0.31,0.69-0.62C52.49,72.94,52.25,72.98,52.02,73z"/>
	<path class="st7" d="M60.95,74.99c-0.65-0.17-1.24-0.44-1.79-0.83s-0.94-0.94-1.45-1.37c-0.68-0.57-1.42-0.72-2.29-0.56
		c-0.82,0.15-1.59,0.23-2.43,0.17c-1.19-0.09-1.27,1.77-0.08,1.86c0.83,0.06,1.67,0.02,2.49-0.13c0.27-0.05,0.59-0.18,0.86-0.09
		c0.16,0.05,0.38,0.28,0.54,0.45c1.01,1.07,2.13,1.9,3.57,2.27c0.49,0.13,1.01-0.11,1.17-0.6C61.69,75.7,61.43,75.12,60.95,74.99z"
		/>
	<path class="st7" d="M80.42,68.06c-0.56-0.02-0.97-0.24-1.27-0.55c-0.04,0.03-0.09,0.04-0.12,0.07c-0.25-0.28-0.45-0.62-0.61-0.93
		c-0.36-0.72-0.62-1.48-0.83-2.25c-0.12-0.44-0.53-0.76-0.99-0.71c-0.42,0.05-0.87,0.41-0.84,0.88c0.03,0.48-0.2,0.83-0.52,1.18
		c-0.17,0.18-0.36,0.4-0.56,0.54c-0.04,0.03-0.08,0.04-0.13,0.06c-0.01-0.01-0.03-0.02-0.04-0.04c-0.09-0.16-0.27-0.33-0.38-0.49
		c-0.15-0.21-0.29-0.42-0.42-0.64c-0.32-0.53-0.59-1.09-0.81-1.66c-0.18-0.47-0.85-0.6-1.26-0.38c-0.48,0.26-0.57,0.79-0.38,1.26
		c0.31,0.79,0.71,1.55,1.19,2.25s1.04,1.5,1.97,1.58c0.88,0.07,1.59-0.53,2.14-1.15c0.51,1.15,1.25,2.17,2.42,2.69
		c0.43,0.19,1.06-0.15,1.17-0.6c0.03-0.13-0.02-0.06,0.04-0.12c0.01-0.01,0.04-0.02,0.06-0.03c0.01,0,0.02,0.01,0.04,0.01
		c0.81,0.26,1.33-0.56,1.15-1.19C81.15,67.98,80.82,68.08,80.42,68.06z"/>
	<path class="st7" d="M88.61,64.72c-0.17-0.13-0.34-0.26-0.52-0.39c-0.39-0.14-0.78-0.3-1.13-0.51c-0.22,0.2-0.43,0.41-0.61,0.64
		c-0.15,0.14-0.31,0.29-0.47,0.42c-0.21,0.17-0.42,0.33-0.64,0.48c-0.02,0.01-0.05,0.03-0.06,0.04c-0.04,0.03-0.09,0.06-0.13,0.09
		c-0.13,0.08-0.27,0.16-0.4,0.24c-0.32-0.11-0.65-0.17-1-0.13c-0.44,0.05-0.89,0.28-1.15,0.65c-0.03,0.05-0.05,0.1-0.08,0.15
		c-0.58,0.23-1.09,0.63-1.47,1.14c-0.29,0.39-0.16,1.04,0.25,1.29c0.45,0.27,0.98,0.16,1.29-0.25c0,0,0.07-0.08,0.09-0.11
		c0.03-0.03,0.07-0.06,0.08-0.07c0.05-0.04,0.11-0.08,0.16-0.13c0,0,0,0,0.01-0.01s0.02-0.01,0.03-0.02
		c0.05-0.03,0.09-0.05,0.14-0.08c0,0,0.06-0.03,0.1-0.05c0.01,0,0.03-0.01,0.06-0.02c0.4,0.01,0.8-0.21,0.96-0.59
		c0.01,0.01,0.03,0.01,0.04,0.02c0.13,0.05,0.26,0.11,0.4,0.17c0.55,0.22,1.23,0.29,1.76-0.02c0.3-0.17,0.54-0.42,0.7-0.73
		c0.09-0.16,0.16-0.33,0.24-0.5c0.02-0.04,0.04-0.09,0.06-0.13c0.01-0.01,0.02-0.04,0.04-0.06c0.11-0.2,0.24-0.39,0.38-0.57
		c0.19-0.18,0.37-0.37,0.54-0.57c0.02-0.02,0.05-0.04,0.07-0.06c0,0,0,0-0.01-0.01c0.05-0.06,0.11-0.11,0.16-0.18
		C88.55,64.83,88.59,64.78,88.61,64.72z"/>
	<path class="st9" d="M69.38,61.71c-0.18-0.6-0.76-0.77-1.23-0.63c-1.1-0.62-2.21-1.23-3.34-1.8c0.66-0.2,0.89-1.34,0.2-1.69
		c-2.41-1.21-4.98-1.96-7.61-2.21c-0.05-0.06-0.11-0.11-0.18-0.15c-2.53-1.62-5.35-0.24-8.07-0.83c-1.16-0.25-1.74,1.52-0.57,1.77
		c1.05,0.23,2.08,0.22,3.13,0.15c-0.02,0.53,0.42,1.04,1.11,0.95c2.17-0.29,4.38-0.19,6.52,0.26c-0.27,0.44-0.13,1.11,0.48,1.38
		c1.63,0.74,3.23,1.53,4.81,2.36c-0.47,0.33-0.47,1.15,0.03,1.57c1.05,0.87,2.37,1.31,3.73,1.27c0.43-0.01,0.78-0.24,0.92-0.65
		C69.53,62.88,69.56,62.31,69.38,61.71z"/>
	<path class="st9" d="M23.13,65.84c-2.13-1.48-2.43-4.28-2.55-6.66c-0.06-1.17-1.86-1.29-1.86-0.08c0,0.09,0,0.18,0,0.28
		c-0.71-2.61-1.04-5.32-0.99-8.04c0.03-1.19-1.83-1.27-1.86-0.08c-0.09,4.47,0.8,8.87,2.59,12.96c0.19,0.43,0.86,0.65,1.26,0.38
		c0.03-0.02,0.05-0.04,0.07-0.06c0.5,1.1,1.24,2.09,2.33,2.85C23.11,68.09,24.11,66.52,23.13,65.84z"/>
	<g>
		<path class="st9" d="M23.85,65.78c0.01,0.01,0.01,0.03,0.02,0.04c0.02,0.04,0.04,0.03-0.03-0.06v0.01
			C23.84,65.77,23.85,65.77,23.85,65.78z"/>
		<path class="st9" d="M25.39,67.57c-0.19-0.1-0.36-0.22-0.53-0.35c0,0,0,0-0.01,0c-0.03-0.03-0.07-0.06-0.1-0.09
			c-0.08-0.07-0.15-0.15-0.22-0.23c-0.06-0.07-0.13-0.14-0.19-0.22c-0.01-0.02-0.04-0.04-0.06-0.06c-0.01-0.01-0.01-0.03-0.03-0.05
			c-0.12-0.18-0.22-0.36-0.31-0.56c-0.03-0.06-0.05-0.13-0.08-0.19c-0.01-0.01-0.01-0.02-0.02-0.04c-0.01-0.01-0.01-0.02-0.02-0.03
			c0,0,0,0,0.01,0.01c-0.02-0.05-0.03-0.1-0.05-0.14c-0.06-0.2-0.11-0.41-0.14-0.62c0-0.02-0.01-0.13-0.01-0.12v-0.01
			c-0.01-0.11-0.01-0.21,0-0.32c0-0.1,0.01-0.19,0.02-0.29c0.01-0.05,0.01-0.11,0.02-0.16c0-0.01,0-0.01,0-0.01
			c0.09-0.47-0.08-1.02-0.6-1.16c-0.44-0.12-1.07,0.09-1.17,0.6c-0.23,1.13-0.1,2.25,0.38,3.3c0.43,0.96,1.19,1.8,2.11,2.31
			c0.42,0.24,1.02,0.17,1.28-0.28C25.91,68.44,25.84,67.83,25.39,67.57z"/>
	</g>
	<path class="st9" d="M28.04,67.52c-0.03-0.08-0.06-0.15-0.08-0.23c-0.07-0.13-0.17-0.23-0.29-0.32c-0.16-0.14-0.3-0.29-0.43-0.46
		c-0.11-0.17-0.2-0.34-0.28-0.52c-0.04-0.13-0.09-0.27-0.11-0.41c-0.04-0.22-0.21-0.45-0.4-0.57s-0.49-0.19-0.71-0.12
		c-0.5,0.14-0.79,0.6-0.7,1.12c0.05,0.27,0.14,0.52,0.24,0.78c0.07,0.19,0.16,0.37,0.27,0.54c0.29,0.47,0.65,0.85,1.08,1.19
		c0.18,0.14,0.5,0.17,0.71,0.12c0.22-0.05,0.46-0.21,0.57-0.4C28.04,68.02,28.11,67.76,28.04,67.52z"/>
	<path class="st5" d="M66.12,64.66c-0.2-0.22-0.42-0.42-0.63-0.62c0.05-0.27,0-0.56-0.21-0.78c-1.86-2.09-4.66-3.61-7.27-4.56
		c-2.97-1.07-6.29-1.2-9.4-1.59c-0.48-0.06-0.8,0.28-0.9,0.68c-0.91-0.36-1.81-0.73-2.71-1.11c-0.45-0.2-1.04,0.16-1.17,0.6
		c-0.03,0.1-0.05,0.21-0.07,0.31c-1.05-0.64-2.15-1.2-3.28-1.69c-1.1-0.47-1.66,1.3-0.57,1.77c1.51,0.65,2.93,1.46,4.27,2.41
		c0.67,0.47,1.6-0.23,1.41-0.99c-0.02-0.06-0.02-0.12-0.03-0.18c1.64,0.68,3.3,1.33,4.98,1.93c0.94,0.33,1.58-0.93,0.93-1.55
		c1.95,0.21,3.9,0.47,5.73,1.09c1.52,0.52,3.12,1.27,4.53,2.23c-0.27,0.42-0.27,1.01,0.26,1.27c0.22,0.11,0.44,0.23,0.65,0.35
		c-0.14-0.01-0.28-0.01-0.43-0.02c-0.89-0.04-1.36,1.25-0.54,1.71c0.58,0.33,1.16,0.66,1.75,0.99c0.67,0.38,1.33-0.14,1.43-0.72
		c0.19,0.01,0.38,0.02,0.57,0.03C66.2,66.25,66.67,65.25,66.12,64.66z"/>
	<path class="st7" d="M32.51,82.79c-0.16-0.16-0.43-0.28-0.66-0.27c-0.24,0.01-0.49,0.09-0.66,0.27c-0.18,0.19-0.24,0.4-0.27,0.66
		c-0.13,1.13-0.19,2.27-0.17,3.41c0.01,0.49,0.42,0.95,0.93,0.93c0.5-0.02,0.94-0.41,0.93-0.93c-0.02-1.14,0.04-2.28,0.17-3.41
		C32.81,83.23,32.66,82.94,32.51,82.79z"/>
	<path class="st7" d="M34.58,85.23c0.12-0.22,0.16-0.47,0.09-0.72c-0.06-0.22-0.23-0.45-0.43-0.56c-0.22-0.11-0.48-0.17-0.72-0.09
		c-0.22,0.07-0.44,0.21-0.56,0.43c-0.29,0.56-0.45,1.15-0.48,1.78c0,0.13,0.02,0.25,0.08,0.36c0.04,0.12,0.1,0.21,0.19,0.3
		c0.08,0.09,0.18,0.15,0.3,0.19c0.11,0.06,0.23,0.08,0.36,0.08c0.24-0.01,0.49-0.09,0.66-0.27c0.17-0.19,0.26-0.4,0.27-0.66
		c0-0.05,0.01-0.09,0.01-0.14c0.03-0.21,0.09-0.41,0.16-0.6C34.55,85.3,34.56,85.26,34.58,85.23z"/>
	<path class="st10" d="M96.24,70.24c-0.5-2.15-2.52-3.27-4.34-4.18c-1.95-0.98-3.91-1.96-5.86-2.93c-0.06,0.15-0.12,0.29-0.18,0.44
		c-0.07,0.25-0.16,0.49-0.25,0.73c1.65,0.83,3.31,1.66,4.96,2.49c1.66,0.83,3.99,1.74,4.46,3.75C95.21,71.3,96.42,71.02,96.24,70.24
		z"/>
	<path class="st10" d="M94,71.77c-1.81,1.9-4.22,3.1-6.82,3.43c-1.41,0.18-2.76,0.01-4.13-0.29c-1.32-0.29-2.63-0.44-3.84,0.28
		c-1.12,0.67-1.92,1.75-3.09,2.35c-1.19,0.61-2.56,0.77-3.88,0.77c-3.07,0-6.17-0.47-9.21-0.76c-3.75-0.35-7.51-0.7-11.26-1.04
		c-0.79-0.07-0.84,1.16-0.05,1.24c3.45,0.32,6.9,0.64,10.35,0.96c3.2,0.3,6.42,0.75,9.63,0.83c1.29,0.03,2.63-0.04,3.87-0.45
		c1.29-0.42,2.24-1.18,3.24-2.06c0.49-0.43,1.02-0.89,1.67-1.07c0.91-0.25,1.86,0.05,2.75,0.24c1.29,0.27,2.57,0.36,3.88,0.23
		c2.92-0.3,5.7-1.64,7.73-3.76C95.39,72.1,94.56,71.19,94,71.77z"/>
	<path class="st10" d="M86.53,76.49c0-0.33-0.25-0.63-0.59-0.64c-0.32-0.01-0.64,0.26-0.64,0.59c0,1.75-0.13,3.5-0.4,5.23
		c-0.05,0.33,0.29,0.63,0.59,0.64c0.37,0.01,0.59-0.26,0.64-0.59C86.4,79.99,86.53,78.24,86.53,76.49z"/>
	<path class="st10" d="M88.04,75.93c-0.34,0-0.63,0.25-0.64,0.59l-0.07,1.75c-0.01,0.32,0.26,0.65,0.59,0.64
		c0.34,0,0.63-0.25,0.64-0.59l0.07-1.75C88.65,76.25,88.38,75.93,88.04,75.93z"/>
	<path class="st10" d="M96.04,70.05c-0.2-0.08-0.39-0.15-0.57-0.27c-0.19-0.13-0.37-0.27-0.54-0.42c-0.01-0.01-0.01-0.01-0.02-0.02
		c0.12,1.91,0.2,3.82,0.12,5.73c-0.04,1.08-0.14,2.15-0.29,3.21c-0.15,0.99-0.3,1.95-0.18,2.95c0.09,0.79,1.31,0.54,1.21-0.25
		c-0.12-1.04,0.14-2.09,0.27-3.12c0.14-1.07,0.21-2.14,0.24-3.22c0.04-1.53-0.01-3.05-0.1-4.58C96.14,70.06,96.09,70.06,96.04,70.05
		z"/>
	<path class="st10" d="M24.66,16.08c-3.28-1.3-6.55,0.73-8.82,2.98c-0.57,0.56-1.19,1.14-1.66,1.79c-0.36,0.5-0.56,1.21-0.07,1.7
		c0.17,0.17,0.36,0.25,0.57,0.28c-1.2,1.12-2.16,2.47-2.61,4.11c-0.21,0.77,0.99,1.09,1.2,0.32c0.74-2.71,3.11-4.48,5.45-5.78
		c0.7-0.39,0.07-1.45-0.63-1.07c-0.58,0.32-1.18,0.59-1.81,0.82c-0.3,0.11-0.61,0.2-0.92,0.28c-0.01,0-0.04,0.01-0.08,0.02
		c0.12-0.15,0.23-0.33,0.32-0.42c0.21-0.22,0.42-0.45,0.63-0.67c0.45-0.46,0.9-0.92,1.39-1.34c1.83-1.6,4.31-2.78,6.72-1.82
		C25.08,17.57,25.4,16.37,24.66,16.08z"/>
	<path class="st10" d="M15.15,25.96c-2.72,1.77-4.48,4.76-4.72,8c-0.06,0.8,1.18,0.78,1.24-0.01c0.21-2.78,1.77-5.4,4.11-6.92
		C16.45,26.59,15.82,25.52,15.15,25.96z"/>
	<path class="st10" d="M52.47,18.89c-0.26-0.38-0.56-0.7-0.88-1c0.07-0.03,0.15-0.07,0.22-0.11c0.29-0.16,0.34-0.61,0.16-0.86
		c-0.52-0.73-1.29-1.13-2.11-1.44c-0.98-0.36-1.98-0.67-2.99-0.94c-2.12-0.57-4.28-0.93-6.47-1.1c-0.79-0.06-1.03,1.15-0.24,1.22
		c1.98,0.16,3.94,0.47,5.86,0.95c0.96,0.24,1.91,0.52,2.85,0.84c0.08,0.03,0.16,0.05,0.24,0.08c-0.47,0.04-0.75,0.79-0.32,1.1
		c0.33,0.24,0.69,0.4,1.05,0.48c0.64,0.36,1.2,0.87,1.62,1.49C51.9,20.26,52.92,19.55,52.47,18.89z"/>
	<path class="st10" d="M58.47,27.15c-1.49-2.46-3.59-4.5-6.07-5.95c-0.29-0.17-0.69,0-0.83,0.29c-0.16,0.32,0,0.66,0.29,0.83
		c2.3,1.34,4.22,3.27,5.6,5.54C57.86,28.53,58.88,27.83,58.47,27.15z"/>
	<g>
		<path class="st10" d="M56.88,28.89L56.88,28.89C56.83,28.82,56.84,28.85,56.88,28.89z"/>
		<path class="st10" d="M58.65,29.23c-0.64-1.11-1.6-2.02-2.71-2.64c-0.28-0.16-0.7-0.01-0.83,0.29c-0.14,0.32-0.02,0.66,0.29,0.83
			c0.12,0.07,0.26,0.13,0.36,0.22l0.01,0.01c0.02,0.02,0.05,0.03,0.07,0.05c0.06,0.04,0.11,0.08,0.17,0.12
			c0.23,0.17,0.45,0.36,0.66,0.57c0.05,0.05,0.1,0.1,0.15,0.15c0.02,0.02,0.05,0.06,0.07,0.08l0,0c0.09,0.1,0.18,0.21,0.27,0.32
			c0.18,0.23,0.34,0.47,0.48,0.72c0.16,0.28,0.61,0.35,0.86,0.16C58.78,29.87,58.82,29.53,58.65,29.23z"/>
	</g>
	<path class="st10" d="M34.57,22.69c-3.87-1.33-8.27-0.81-11.64,1.55c-1.6,1.12-3.01,2.74-3.23,4.75s0.88,3.63,2.51,4.7
		c2.02,1.33,4.45,1.94,6.86,1.94c0.8,0,0.7-1.24-0.1-1.24c-2.25,0.01-4.68-0.62-6.48-2.01c-0.85-0.66-1.51-1.53-1.58-2.64
		c-0.06-1.1,0.39-2.15,1.08-2.99c2.77-3.39,8.04-4.31,12.04-2.94C34.78,24.06,35.32,22.95,34.57,22.69z"/>
	<path class="st10" d="M47.75,22.16c-1.6-1.71-3.77-3.13-6.21-2.92c-2.51,0.21-5,1.57-6.97,3.07c-0.63,0.48,0.07,1.5,0.71,1.02
		c1.64-1.24,3.57-2.33,5.61-2.74c2.2-0.45,4.02,0.56,5.58,2.04c1.23,1.16,3.07,3.52,2.08,5.3c-0.45,0.81-1.35,1.32-2.12,1.79
		c-0.97,0.58-1.98,1.07-3.03,1.47c-0.74,0.29-0.33,1.46,0.42,1.17c1.23-0.48,2.41-1.06,3.53-1.75c0.91-0.57,1.88-1.23,2.36-2.22
		C50.76,26.22,49.19,23.7,47.75,22.16z"/>
	<path class="st10" d="M38.4,30.09c-0.72-0.15-1.5,0.52-1.88,1.06c-0.18,0.25-0.31,0.53-0.41,0.82c-0.21-0.17-0.42-0.33-0.63-0.49
		c-0.27-0.19-0.55-0.42-0.86-0.57c-0.41-0.2-0.93-0.08-1.12,0.36c-0.27,0.64,0.32,1.45,0.81,1.81c0.55,0.41,1.2,0.59,1.86,0.71
		c0.05,0.01,0.11,0,0.16,0c0.2,0.25,0.57,0.31,0.84,0.13c0.62-0.41,1.13-0.97,1.49-1.62C39.04,31.66,39.51,30.33,38.4,30.09z"/>
	<path class="st10" d="M40.87,33.17c-0.28-0.14-0.71-0.03-0.83,0.29c-0.2,0.52-0.51,1.51-1.22,1.47c-0.86-0.05-1.17-1.09-1.33-1.78
		c-0.16-0.67-1.34-0.43-1.2,0.26c0.17,0.83,0.22,2.2-0.56,2.77c-0.33,0.24-0.69,0.01-0.97-0.22c-0.36-0.29-0.6-0.67-0.75-1.1
		c-0.26-0.75-1.43-0.33-1.17,0.42c0.42,1.21,1.86,2.77,3.28,2.1c0.71-0.33,1.13-1,1.34-1.75c0.35,0.3,0.78,0.49,1.3,0.53
		c1.31,0.08,2.01-1.08,2.41-2.16C41.27,33.69,41.19,33.33,40.87,33.17z"/>
	<path class="st10" d="M31,27.43c-1.01-0.79-2.57-0.91-3.76-0.5c-1.17,0.41-2.15,1.34-2.4,2.58c-0.07,0.33,0.08,0.67,0.42,0.77
		c0.3,0.09,0.7-0.09,0.77-0.42c0.38-1.88,2.91-2.48,4.33-1.37c0.26,0.21,0.69,0.05,0.85-0.21C31.4,27.97,31.27,27.64,31,27.43z"/>
	<path class="st10" d="M44.83,24.72c-1.01-0.79-2.57-0.91-3.76-0.5c-1.17,0.41-2.15,1.34-2.4,2.58c-0.07,0.33,0.08,0.67,0.42,0.77
		c0.3,0.09,0.7-0.09,0.77-0.42c0.38-1.88,2.91-2.48,4.33-1.37c0.26,0.21,0.69,0.05,0.85-0.21C45.23,25.26,45.1,24.93,44.83,24.72z"
		/>
	<path class="st10" d="M44.37,31.62c-0.25-0.76-1.42-0.34-1.17,0.42c0.83,2.5,1.6,5.2,0.84,7.82c-0.64,2.21-2.5,3.74-4.76,4.09
		c-5.1,0.78-8.58-3.99-9.64-8.38c-0.19-0.77-1.35-0.35-1.17,0.42c0.99,4.1,3.66,8.03,7.97,9.06c4.05,0.97,8.11-1.43,8.96-5.54
		C45.95,36.83,45.21,34.14,44.37,31.62z"/>
	<path class="st10" d="M12.84,33.57c-2.3,0.83-3.86,3.17-3.78,5.6c0.01,0.33,0.34,0.59,0.67,0.57c0.35-0.03,0.58-0.33,0.57-0.67
		c-0.01-0.29,0-0.4,0.03-0.67c0.04-0.25,0.09-0.5,0.16-0.75c0.04-0.12,0.15-0.4,0.24-0.59c0.06-0.12,0.12-0.24,0.19-0.36
		c0.03-0.05,0.06-0.1,0.09-0.14c0.04-0.07,0.04-0.07,0.06-0.09c0.57-0.83,1.3-1.42,2.2-1.74C14.01,34.46,13.59,33.29,12.84,33.57z"
		/>
	<path class="st10" d="M13.12,38.16c-0.23-0.2-0.69-0.21-0.87,0.07c-1.11,1.67-1.89,3.53-2.25,5.51c-0.14,0.79,1.07,1.02,1.22,0.24
		c0.32-1.75,0.99-3.45,1.97-4.94C13.38,38.76,13.4,38.4,13.12,38.16z"/>
	<path class="st10" d="M60.82,34.86c-1.03-1.7-2.5-3.11-4.22-4.11c-0.29-0.17-0.69,0-0.83,0.29c-0.16,0.32,0,0.66,0.29,0.83
		c0.74,0.43,1.46,0.98,2.1,1.61c0.61,0.6,1.16,1.31,1.64,2.09c0.17,0.29,0.6,0.34,0.86,0.16C60.96,35.52,61,35.14,60.82,34.86z"/>
	<g>
		<path class="st10" d="M61.1,37.09c-0.67-0.93-1.53-1.71-2.51-2.31c-0.13-0.08-0.34-0.07-0.48-0.03c-0.14,0.05-0.29,0.17-0.35,0.31
			c-0.06,0.15-0.09,0.33-0.03,0.48c0.06,0.16,0.17,0.26,0.31,0.35c0.03,0.02,0.07,0.05,0.1,0.07c-0.01-0.01,0-0.01,0.04,0.02
			l0.01,0.01h0.01l0,0c0.02,0.01,0.04,0.03,0.06,0.04c0.11,0.07,0.21,0.15,0.31,0.23c0.2,0.15,0.39,0.31,0.57,0.48
			c0.09,0.08,0.18,0.17,0.26,0.25c0.04,0.05,0.09,0.09,0.13,0.14c0.01,0.01,0.03,0.03,0.04,0.05l0.01,0.01
			c0.17,0.19,0.33,0.39,0.48,0.6c0.19,0.26,0.59,0.36,0.86,0.16C61.2,37.75,61.3,37.37,61.1,37.09z"/>
		<path class="st10" d="M58.15,35.96c0.01,0.01,0.03,0.02,0.05,0.03l0,0C58.19,35.98,58.17,35.97,58.15,35.96z"/>
	</g>
	<path class="st10" d="M35.55,8.77c-1.56,0.3-3.03,0.98-4.28,1.93c0.23-0.52,0.46-1.05,0.68-1.57c0.19-0.43-0.3-0.91-0.73-0.79
		c-0.77,0.21-1.34,0.73-1.9,1.28c-0.55,0.54-1.09,1.1-1.59,1.69c-1.02,1.2-1.8,2.52-2.06,4.1c-0.05,0.33,0.29,0.63,0.59,0.64
		c0.37,0.02,0.59-0.26,0.64-0.59c0.21-1.27,0.94-2.39,1.76-3.35c0.38-0.44,0.78-0.86,1.19-1.27c-0.4,0.92-0.81,1.85-1.21,2.77
		c-0.28,0.65,0.75,1.11,1.11,0.52c1.35-2.17,3.56-3.67,6.06-4.15C36.61,9.82,36.33,8.61,35.55,8.77z"/>
	<path class="st10" d="M37.62,9.91c-0.17-0.29-0.53-0.41-0.84-0.26c-1.59,0.81-2.95,1.99-4,3.42c-0.19,0.26-0.09,0.69,0.19,0.86
		c0.31,0.18,0.65,0.09,0.86-0.19c0.12-0.16,0.24-0.32,0.37-0.48c0.01-0.02,0.02-0.03,0.03-0.03c0.01-0.01,0.01-0.02,0.03-0.03
		c0.03-0.03,0.05-0.06,0.08-0.09c0.07-0.08,0.13-0.15,0.2-0.22c0.28-0.3,0.58-0.59,0.89-0.85c0.15-0.13,0.31-0.26,0.47-0.38
		c0.04-0.03,0.08-0.06,0.12-0.09c0.01-0.01,0.06-0.04,0.08-0.06s0.09-0.06,0.08-0.06c0.04-0.03,0.08-0.06,0.12-0.08
		c0.34-0.23,0.7-0.43,1.07-0.62C37.65,10.61,37.79,10.2,37.62,9.91z"/>
	<path class="st10" d="M39.47,10.93c-0.15-0.31-0.49-0.45-0.81-0.33c-1.08,0.41-2.08,1.04-2.91,1.85c-0.12,0.12-0.21,0.23-0.24,0.41
		c-0.02,0.15,0.02,0.34,0.12,0.46c0.2,0.23,0.62,0.36,0.87,0.11c0.39-0.38,0.82-0.72,1.28-1.02c0.05-0.03,0.11-0.07,0.16-0.1
		c0.03-0.02,0.05-0.03,0.08-0.05c0,0,0,0,0.01,0c0.12-0.07,0.24-0.13,0.36-0.19c0.25-0.12,0.5-0.23,0.76-0.33
		C39.44,11.63,39.61,11.22,39.47,10.93z"/>
	<path class="st10" d="M13.54,43.82c-0.33-0.1-0.67,0.09-0.78,0.4c-0.49,1.39-0.74,2.87-0.72,4.34c0,0.33,0.25,0.63,0.59,0.64
		c0.32,0.01,0.65-0.26,0.64-0.59c-0.02-1.39,0.2-2.71,0.66-4.01C14.05,44.28,13.85,43.92,13.54,43.82z"/>
	<path class="st10" d="M14.83,46.83c-0.34,0-0.63,0.25-0.64,0.59l-0.07,1.75c-0.01,0.32,0.26,0.65,0.59,0.64
		c0.34,0,0.63-0.25,0.64-0.59l0.07-1.75C15.44,47.15,15.16,46.83,14.83,46.83z"/>
	<path class="st10" d="M30.72,69.35c-1.54-0.2-3-0.84-4.18-1.84c-0.48-0.41-1.43,0.07-1,0.71c0.18,0.27,0.34,0.55,0.48,0.84
		c-2.63-0.41-4.96-2.13-6.12-4.56c-0.34-0.72-1.44-0.14-1.09,0.58c1.48,3.1,4.69,5.19,8.12,5.31c0.38,0.01,0.74-0.37,0.63-0.76
		v-0.01c0.97,0.49,2.01,0.82,3.13,0.96C31.46,70.69,31.51,69.45,30.72,69.35z"/>
	<path class="st10" d="M40.27,71.02c-1.79-0.43-3.58-0.86-5.37-1.29c-0.33-0.08-0.67,0.07-0.78,0.4c-0.1,0.3,0.07,0.7,0.4,0.78
		c1.79,0.43,3.58,0.86,5.37,1.29c0.33,0.08,0.67-0.07,0.78-0.4C40.77,71.5,40.6,71.1,40.27,71.02z"/>
	<path class="st10" d="M45.71,57.28c-1.68-1.08-3.68-1.63-5.68-1.55c-0.33,0.01-0.63,0.24-0.64,0.59c-0.01,0.31,0.26,0.66,0.59,0.64
		c1.79-0.07,3.55,0.39,5.06,1.35C45.71,58.75,46.38,57.71,45.71,57.28z"/>
	<path class="st10" d="M49.66,58.05c-0.86-0.78-1.81-1.44-2.86-1.95c-0.29-0.14-0.67-0.12-0.86,0.19c-0.15,0.26-0.12,0.7,0.19,0.86
		c0.49,0.24,0.96,0.51,1.41,0.81c0.22,0.15,0.43,0.3,0.64,0.46c0.05,0.04,0.1,0.08,0.16,0.12c0.03,0.03,0.06,0.05,0.1,0.08
		c0,0,0.03,0.02,0.04,0.03c0.01,0.01,0.02,0.02,0.03,0.02c0.03,0.02,0.05,0.04,0.07,0.06c0.06,0.05,0.11,0.1,0.17,0.15
		c0.24,0.22,0.62,0.29,0.88,0.04C49.85,58.7,49.92,58.28,49.66,58.05z"/>
	<path class="st10" d="M66.6,63.14c-4.47-3.82-10.05-6.12-15.92-6.52c-0.8-0.05-0.85,1.18-0.05,1.24
		c5.52,0.37,10.85,2.52,15.06,6.12C66.29,64.49,67.2,63.65,66.6,63.14z"/>
	<path class="st10" d="M70.96,68.47c-0.74-1.07-1.76-1.87-2.98-2.34c-0.75-0.29-1.12,0.89-0.38,1.18c1.55,0.6,2.74,1.98,3.11,3.6
		c0.02,0.11,0.03,0.33,0.06,0.48c-0.43-0.22-1-0.32-1.45-0.48c-0.5-0.17-1-0.33-1.5-0.5c-0.19-0.06-0.45-0.13-0.67-0.24
		c-0.23-0.3-0.42-0.55-0.54-0.7c-0.4-0.51-1.18-0.01-1.06,0.56c0.09,0.43,0.34,0.74,0.66,0.99c0.34,0.49,0.67,0.99,0.96,1.52
		c0.18,0.34,0.4,0.69,0.52,1.06c0.04,0.08,0.06,0.17,0.08,0.25c0.04,0.12,0.01,0.11-0.06-0.01c-0.15,0.01-0.36-0.13-0.49-0.19
		c-1.51-0.63-2.85-1.6-3.95-2.79c-0.46-0.5-1.4,0.11-1,0.71c0.5,0.76,0.85,1.58,0.99,2.48c0.07,0.45,0.09,0.91,0.06,1.37
		c-0.04,0.5-0.08,1.08-0.72,0.75c-1.6-0.81-3.01-2.46-4.01-3.91c-0.45-0.65-1.55-0.08-1.09,0.58c0.75,1.1,1.61,2.11,2.61,2.99
		c0.81,0.72,2.04,1.95,3.23,1.68c1.21-0.28,1.28-1.81,1.23-2.81c-0.02-0.41-0.08-0.82-0.17-1.21c0.24,0.17,0.48,0.33,0.73,0.48
		c0.78,0.47,2.13,1.37,3.09,1.09c1.3-0.38,0.84-1.83,0.08-3.18c0.14,0.04,0.28,0.08,0.41,0.12c0.91,0.3,3.09,1.5,3.34-0.16
		C72.19,70.73,71.58,69.37,70.96,68.47z"/>
	<path class="st10" d="M18.43,64.65c-1.07-1.85-1.56-3.96-1.4-6.09c0.06-0.8-1.18-0.85-1.24-0.05c-0.18,2.33,0.36,4.7,1.54,6.72
		C17.74,65.92,18.84,65.35,18.43,64.65z"/>
	<path class="st10" d="M54.76,77.05c-1.54,1.03-3.37,1.06-5.16,1.15c-0.81,0.04-1.62,0.1-2.41,0.24c-0.94,0.17-1.8,0.54-2.68,0.9
		c-2.13,0.84-4.18,0.5-6.31-0.14c-1.99-0.6-3.92-1.23-5.98-1.49c-4.19-0.53-8.41,0-12.61-0.25c-3.54-0.21-7.73-0.97-10.33-3.63
		c-0.58-0.6-1.23-1.53-1.12-2.41c0.14-1.09,1.86-1.57,2.72-1.95c2.2-0.97,4.49-1.71,6.84-2.26c0.78-0.18,0.5-1.39-0.28-1.21
		c-2.26,0.53-4.48,1.24-6.62,2.14c-1.64,0.69-4.03,1.43-3.9,3.61c0.1,1.76,1.5,3.12,2.86,4.07c1.67,1.16,3.62,1.89,5.6,2.32
		c4.38,0.95,8.84,0.47,13.27,0.57c2.49,0.05,4.9,0.35,7.28,1.08c2.06,0.63,4.18,1.44,6.37,1.32c1.22-0.06,2.28-0.48,3.41-0.93
		s2.27-0.65,3.49-0.72c2.11-0.13,4.33-0.09,6.15-1.32C55.99,77.7,55.42,76.6,54.76,77.05z"/>
	<path class="st10" d="M7.34,71.94c-0.26-0.17-0.7-0.11-0.86,0.19c-0.88,1.66-1.15,6.14-0.68,7.96c0.2,0.77,1.41,0.49,1.21-0.28
		c-0.39-1.49-0.21-5.65,0.52-7.01C7.68,72.5,7.64,72.13,7.34,71.94z"/>
	<path class="st10" d="M31.23,89.14c0.18-0.24,0.45-0.43,0.71-0.59c-3.39-0.55-6.72-1.4-9.95-2.59c-2.39-0.87-4.64-1.98-6.92-3.08
		c-2.04-0.99-4.3-1.87-6.56-1.1c-0.75,0.25-0.48,1.47,0.28,1.21c2.39-0.81,4.73,0.49,6.82,1.55c2.2,1.11,4.47,2.09,6.8,2.9
		c2.79,0.97,5.66,1.71,8.56,2.22C31.03,89.47,31.11,89.29,31.23,89.14z"/>
	<path class="st10" d="M73.79,47.99c-0.29-0.02-0.58,0-0.87,0.02c-0.09-0.23-0.34-0.42-0.58-0.46c-2.46-0.41-4.94-0.68-7.43-0.82
		c-0.8-0.04-0.85,1.2-0.05,1.24c2.11,0.11,4.22,0.33,6.31,0.65c-0.25,0.41,0.22,1.05,0.69,0.88c0.61-0.22,1.22-0.31,1.87-0.28
		C74.54,49.27,74.59,48.03,73.79,47.99z"/>
	<path class="st10" d="M81.78,51.33c-1.38-1.54-3.76-1.98-5.6-1.04c-0.71,0.36-0.13,1.46,0.58,1.09c0.2-0.1,0.3-0.15,0.49-0.2
		c0.2-0.06,0.4-0.1,0.6-0.13c0.01,0,0.05-0.01,0.06-0.01c0.05,0,0.1-0.01,0.15-0.01c0.1,0,0.21,0,0.31,0s0.21,0.01,0.31,0.02
		c0.05,0,0.09,0.01,0.14,0.02c0.01,0,0.06,0.01,0.09,0.01c0.79,0.16,1.44,0.51,1.96,1.09C81.4,52.76,82.31,51.92,81.78,51.33z"/>
	<g>
		<path class="st10" d="M75.98,58.74c-0.41,0.01-0.82,0.01-1.24,0.02c-0.7,0.01-0.87,0.94-0.23,1.2c0,0,0-0.01-0.02-0.03
			c0.01,0.01,0.02,0.02,0.03,0.03l0.01,0.01c-0.01,0,0,0-0.01,0c0.01,0.01,0.01,0.01,0.02,0.02c0.01,0.01,0.02,0.03,0.02,0.05l0,0
			c0.01,0.04,0.02,0.21,0.02,0.08c0,0.04,0,0.09-0.01,0.13c0,0.01-0.01,0.03-0.02,0.05c0,0-0.02,0.04-0.03,0.07
			c-0.01,0.01-0.07,0.08-0.08,0.09c-0.09,0.08,0.01,0-0.08,0.05c0,0-0.1,0.04-0.11,0.05c-0.06,0.02-0.11,0.03-0.17,0.04
			c-0.03,0.01-0.07,0.01-0.11,0.02c0,0-0.01,0-0.03,0c-0.31,0.01-0.55-0.05-0.85-0.16c-0.62-0.22-1.38-0.75-2.05-0.37
			c-0.39,0.23-0.48,0.65-0.5,1.06c-0.02,0.39-0.04,0.79-0.06,1.18c-0.04,0.8,1.2,0.85,1.24,0.05c0.02-0.37,0.08-0.76,0.07-1.13
			c0.1,0.04,0.19,0.08,0.28,0.12c0.72,0.3,1.43,0.57,2.23,0.45c0.67-0.1,1.33-0.57,1.48-1.26c0.04-0.19,0.05-0.38,0.03-0.57
			c0.04,0,0.08,0,0.12,0c0.33-0.01,0.63-0.25,0.64-0.59C76.58,59.06,76.31,58.73,75.98,58.74z"/>
		<path class="st10" d="M74.51,59.96C74.46,59.94,74.5,59.97,74.51,59.96L74.51,59.96z"/>
		<polygon class="st10" points="74.51,59.96 74.51,59.96 74.52,59.96 		"/>
	</g>
	<path class="st10" d="M82.77,57.23c-0.08-0.3-0.42-0.58-0.74-0.46c-1.2,0.41-2.37,0.37-3.53-0.12c-0.3-0.13-0.7,0.1-0.78,0.4
		c-0.09,0.35,0.08,0.64,0.4,0.78c1.31,0.55,2.84,0.61,4.19,0.15C82.61,57.87,82.86,57.58,82.77,57.23z"/>
	<path class="st10" d="M86.79,53.62c-0.25-0.25-0.6-0.25-0.88-0.04c-0.03,0.02-0.06,0.05-0.09,0.07c-0.01,0.01-0.01,0.01-0.02,0.01
		c-0.06,0.04-0.12,0.08-0.18,0.11c-0.14,0.08-0.28,0.15-0.42,0.21c-0.01,0-0.03,0.01-0.05,0.02c-0.02,0.01-0.05,0.02-0.06,0.02
		c-0.07,0.02-0.14,0.05-0.21,0.07c-0.15,0.04-0.31,0.07-0.47,0.1c-0.03,0-0.06,0.01-0.1,0.01c-0.01,0-0.01,0-0.02,0
		c-0.07,0-0.15,0.01-0.22,0.01c-0.15,0-0.3-0.01-0.45-0.02c-0.04,0-0.07-0.01-0.11-0.01c-0.01,0-0.01,0-0.02,0
		c-0.08-0.02-0.15-0.03-0.23-0.05c-0.15-0.04-0.3-0.09-0.45-0.15c-0.3-0.12-0.7,0.1-0.78,0.4c-0.09,0.35,0.08,0.65,0.4,0.78
		c1.43,0.59,3.11,0.29,4.31-0.66C87,54.29,87.01,53.85,86.79,53.62z"/>
	<path class="st10" d="M94.81,89.37c-5.09-0.91-10.24-1.4-15.41-1.42c-1.25,0-2.51,0.02-3.76,0.07c-0.95,0.04-2.11-0.04-2.93,0.53
		c-0.38,0.26-0.59,0.63-0.77,1.04c-0.25,0.6-0.49,0.85-1.17,0.85c-1.14,0-2.34-0.46-3.44-0.76c-2.83-0.77-5.61-1.69-8.34-2.75
		c-0.75-0.29-1.12,0.89-0.38,1.18c2.41,0.93,4.86,1.76,7.34,2.47c1.21,0.34,2.43,0.69,3.66,0.95c0.81,0.17,1.73,0.27,2.49-0.15
		c0.89-0.49,0.82-1.79,1.81-2.01c1.19-0.27,2.56-0.16,3.77-0.18c2.6-0.04,5.21,0.04,7.81,0.23c2.99,0.22,5.97,0.6,8.93,1.12
		C95.2,90.69,95.59,89.51,94.81,89.37z"/>
	<path class="st10" d="M76.38,62.56c-0.36,0-0.61,0.25-0.64,0.59c-0.01,0.09-0.02,0.17-0.03,0.26c0,0.03-0.03,0.21-0.03,0.17
		c0.01-0.03-0.03,0.14-0.03,0.17c-0.02,0.07-0.03,0.15-0.05,0.22c-0.07,0.3-0.16,0.6-0.27,0.9c-0.05,0.14-0.11,0.28-0.16,0.42
		c-0.07,0.16-0.09,0.21-0.15,0.32c0,0.01-0.01,0.01-0.01,0.02c-0.03-0.08-0.07-0.16-0.1-0.24c-0.13-0.31-0.26-0.62-0.39-0.93
		c-0.27-0.64-0.53-1.28-0.8-1.92c-0.13-0.3-0.57-0.42-0.84-0.26c-0.31,0.18-0.39,0.52-0.26,0.84c0.24,0.57,0.48,1.15,0.72,1.72
		c0.12,0.29,0.24,0.57,0.36,0.86c0.11,0.26,0.2,0.54,0.34,0.78c0.17,0.28,0.4,0.53,0.72,0.63c0.41,0.13,0.8-0.07,1.04-0.38
		c0.18-0.23,0.3-0.54,0.43-0.8c0.12-0.25,0.22-0.51,0.32-0.78c0.22-0.63,0.36-1.29,0.43-1.96C77.01,62.88,76.7,62.55,76.38,62.56z"
		/>
	<path class="st10" d="M81.65,61.14c-0.2-0.77-1.41-0.49-1.21,0.28c0.31,1.21,0.65,2.43,0.64,3.69c0,0.56-0.07,1.11-0.24,1.65
		c-0.08,0.25-0.17,0.5-0.31,0.73c-0.11,0.18-0.13,0.27-0.31,0.17c-0.41-0.22-0.62-0.77-0.79-1.16c-0.22-0.51-0.42-1.02-0.62-1.54
		c-0.42-1.08-0.87-2.13-1.56-3.07c-0.2-0.27-0.65-0.25-0.88-0.04c-0.27,0.25-0.24,0.61-0.04,0.88c0.61,0.83,0.99,1.8,1.36,2.75
		c0.35,0.92,0.66,1.93,1.28,2.7c0.32,0.4,0.8,0.74,1.32,0.77c0.56,0.03,1.01-0.35,1.28-0.8c0.55-0.93,0.75-2.06,0.74-3.12
		C82.31,63.71,81.98,62.42,81.65,61.14z"/>
	<path class="st10" d="M84.77,60.23c-0.12-0.31-0.57-0.4-0.84-0.26c-0.32,0.17-0.38,0.52-0.26,0.84c0.74,1.9,0.21,4.21-1.23,5.63
		c-0.57,0.56,0.27,1.47,0.84,0.91C85.15,65.5,85.72,62.66,84.77,60.23z"/>
	<path class="st10" d="M86.08,56.69c-0.49-0.63-1.4,0.22-0.91,0.84c1.67,2.12,1.47,5.2-0.43,7.1c-0.56,0.56,0.28,1.48,0.84,0.91
		C87.98,63.14,88.18,59.36,86.08,56.69z"/>
	<path class="st10" d="M52.28,72.53c-2.66-0.34-5.17-1.43-7.26-3.11c-0.26-0.21-0.69-0.07-0.86,0.19c-0.2,0.31-0.07,0.65,0.19,0.86
		c2.26,1.81,5,2.94,7.88,3.3C53.02,73.86,53.07,72.62,52.28,72.53z"/>
	<path class="st10" d="M59.33,69.84c-0.9,0.54-1.94,0.58-2.89,0.13c-0.58-0.27-1.05,0.59-0.64,1.01c0.14,0.14,0.28,0.29,0.42,0.43
		c-0.14,0.02-0.27,0.04-0.41,0.04c-0.37,0.01-0.75-0.01-1.12-0.09c-0.76-0.16-1.45-0.5-2.06-0.98c-0.26-0.21-0.69-0.07-0.86,0.19
		c-0.2,0.31-0.08,0.65,0.19,0.86c1.09,0.87,2.52,1.33,3.91,1.26c0.6-0.03,1.43-0.07,1.78-0.65c0.11-0.18,0.13-0.35,0.11-0.52
		c0.75,0,1.51-0.19,2.16-0.58C60.59,70.52,60.01,69.43,59.33,69.84z"/>
	<path class="st10" d="M63.78,67.32c-0.16-0.27-0.55-0.44-0.84-0.26c-0.18,0.12-0.37,0.22-0.57,0.3c-0.02,0.01-0.03,0.01-0.05,0.02
		l0,0c-0.05,0.02-0.11,0.04-0.16,0.05c-0.1,0.03-0.21,0.06-0.31,0.08c-0.05,0.01-0.1,0.02-0.15,0.03c-0.03,0.01-0.14,0.04-0.17,0.02
		c0.09-0.01,0.11-0.01,0.04,0c-0.03,0-0.06,0-0.09,0.01c-0.05,0-0.1,0-0.15,0c-0.22,0-0.44-0.02-0.66-0.06
		c-0.14-0.03-0.34,0.07-0.45,0.16c-0.11,0.1-0.2,0.28-0.2,0.43c0,0.16,0.05,0.33,0.16,0.45c0.12,0.12,0.26,0.17,0.43,0.2
		c0.99,0.17,2.06-0.05,2.91-0.59C63.79,67.98,63.95,67.62,63.78,67.32z"/>
	<path class="st10" d="M67.29,65.08c-0.03-0.15-0.14-0.31-0.27-0.38c-0.28-0.17-0.68-0.11-0.86,0.19c-0.03,0.05-0.06,0.09-0.09,0.13
		c-0.07,0.08-0.15,0.14-0.23,0.21c-0.08,0.05-0.17,0.1-0.26,0.13c-0.1,0.03-0.21,0.06-0.32,0.07c-0.01,0-0.02,0-0.03,0
		c-0.16,0-0.32,0.05-0.45,0.16c-0.11,0.1-0.2,0.28-0.2,0.43c0,0.16,0.05,0.33,0.16,0.45c0.11,0.11,0.26,0.2,0.43,0.2
		c0.81,0,1.6-0.42,2.02-1.11C67.29,65.41,67.33,65.24,67.29,65.08z"/>
	<path class="st10" d="M77.86,82.66c-0.02-0.04-0.03-0.07-0.05-0.11c-0.01-0.02-0.01-0.02-0.01-0.03s0-0.02-0.01-0.03
		c-0.03-0.09-0.05-0.18-0.07-0.27c-0.01-0.04-0.01-0.07-0.02-0.11c0.02,0.13,0-0.04,0-0.06c0-0.08,0-0.17,0.01-0.25
		c0-0.05,0.01-0.09,0.01-0.14c0-0.01,0-0.01,0-0.02c0,0,0,0,0-0.01c0.03-0.09,0.05-0.18,0.08-0.27c0.02-0.04,0.03-0.09,0.05-0.13
		c0.01-0.01,0.01-0.02,0.01-0.02s0,0,0.01-0.01c0.06-0.09,0.1-0.18,0.16-0.26c0.19-0.26,0.09-0.69-0.19-0.86
		c-0.3-0.18-0.65-0.09-0.86,0.19c-0.45,0.63-0.61,1.42-0.49,2.18c0.03,0.18,0.08,0.34,0.14,0.51c0.04,0.1,0.08,0.19,0.12,0.29
		c0.01,0.03,0.08,0.22,0.05,0.12c0.01,0.04,0.03,0.08,0.04,0.13c-0.25,0.02-0.49,0.19-0.55,0.43c-0.09,0.34,0.08,0.65,0.4,0.78
		c0.55,0.21,1.09-0.17,1.31-0.66C78.23,83.58,78.05,83.09,77.86,82.66z"/>
	<path class="st10" d="M98.28,82.48c-0.71,1.08-2.2,0.94-3.3,0.77c-1.36-0.22-2.59-0.38-3.96-0.07c-1.35,0.31-2.66,0.84-3.96,1.31
		c-1.38,0.49-2.74,1-4.11,1.53c-0.74,0.28-0.42,1.48,0.33,1.2c1.5-0.58,3.02-1.14,4.53-1.68c1.45-0.52,2.97-1.2,4.52-1.31
		c2.37-0.17,5.36,1.42,7.02-1.11C99.79,82.44,98.71,81.82,98.28,82.48z"/>
	<path class="st10" d="M58.95,87.05c-2.55,0.35-5.11-0.04-7.65-0.34c-2.5-0.3-5.01-0.53-7.52-0.56c-2.46-0.03-4.93,0.14-7.34,0.62
		c-2.12,0.42-4.23,1.08-5.86,2.55c-0.59,0.53,0.25,1.44,0.84,0.91c1.68-1.51,3.98-2.04,6.16-2.41c2.41-0.41,4.87-0.49,7.32-0.41
		c2.42,0.09,4.83,0.34,7.23,0.64c2.37,0.29,4.73,0.53,7.11,0.21C60.02,88.15,59.73,86.94,58.95,87.05z"/>
	<path class="st10" d="M9.52,81.03c-2.74-1-5.81-1-8.55,0C0.23,81.3,0.55,82.5,1.3,82.22c2.56-0.93,5.33-0.93,7.89,0
		C9.94,82.5,10.26,81.3,9.52,81.03z"/>
</g>
</svg>
