<svg width="1024" height="1024" fill="none" xmlns="http://www.w3.org/2000/svg"><g clip-path="url(#clip0)"><path d="M469.633 97.573a200.655 200.655 0 00-181.158 87.97 235.537 235.537 0 00-15.552 26.213c-9.445 18.228-35.418 65.247-68.698 99.81 0 0 23.08 11.968 46.928 4.467 0 0-37.523 42.851-40.951 82.641 0 0 21.373 2.904 36.906-5.781 0 0 2.695 51.249-48.55 124.076 0 0-41.809 59.34-59.341 114.635 0 0 12.137 8.091 41.805 0 0 0-94.486 127.031-65.782 231.966a285.665 285.665 0 0019.07 36.992l26.426-15.8s6.225 23.525 41.293 31.616l28.782-27.37s54.39-7.284 94.841 7.552c0 0 43.465 31.722 112.073 43.886 17.205 3.046 39.168-16.989 39.168-16.989a41.227 41.227 0 015.16-5.489c6.331-15.647 8.492-40.534-.288-80.029h79.568s-15.237 37.256-9.496 76.203c0 0 20.507 36.477 40.656 35.335 15.194-.861 34.374-8.012 57.333-25.488a57.081 57.081 0 0126.221-9.146 188.39 188.39 0 0160.072 2.755s68.368 22.612 123.663-20.547c0 0 28.653-20.573 34.048-47.546a137.726 137.726 0 0127.405 13.321l4.624-39.884c-2.243-44.949-20.121-117.272-98.842-185.935a354.431 354.431 0 0140.458-9.444s-22.927-48.554-86.313-79.572c0 0-44.504-33.718-51.249-134.863 0 0 5.395 6.742 28.334 13.487 0 0 1.35-44.509-31.018-78.222l26.973-5.395s.96-11.523-21.424-33.753a108.567 108.567 0 01-29.235-49.691 113.018 113.018 0 01-2.649-13.62 163.452 163.452 0 00-11.707-45.126C667.2 150.644 607.746 62.038 469.633 97.573z" fill="#F4DCC6"/><path d="M344.136 275.495s-1.338-66.679 68.498-75.719a100.89 100.89 0 0155.373 12.904 22.49 22.49 0 0026.575-3.423c15.324-14.561 44.363-34.6 82.374-25.914 57.51 13.147 54.476 77.34 54.476 77.34l-287.296 14.812z" fill="#C99673"/><path d="M487.318 250.912s-37.413-34.918-96.867-21.644a60.212 60.212 0 00-43.548 36.716 53.948 53.948 0 00-1.181 3.459c-10.806 34.237 11.873 69.863 47.015 77.179a136.774 136.774 0 0025.579 2.704 15.276 15.276 0 0115.132 15.202v82.971a58.36 58.36 0 001.967 15.419c4.955 18.075 21.782 54.354 77.049 54.354 39.105 0 57.644-15.836 66.436-30.695a58.382 58.382 0 007.662-32.041l-3.845-99.595a15.235 15.235 0 011.919-7.988 15.235 15.235 0 015.786-5.833c13.947-7.976 41.144-28.153 42.305-64.688a73.012 73.012 0 00-18.366-50.332 71.465 71.465 0 00-2.499-2.724 60.996 60.996 0 00-78.312-7.398c-11.857 8.087-27.622 19.586-46.232 34.934z" fill="#F74F73"/><path d="M469.81 293.228c-9.638-12.054-24.722-16.237-35.678-17.63a13.773 13.773 0 00-15.401 11.934 13.779 13.779 0 0011.934 15.4 27.344 27.344 0 0117.63 7.477 13.773 13.773 0 0021.515-17.201v.02zM566.815 276.515a13.777 13.777 0 00-17.63-8.284 61.302 61.302 0 00-29.48 22.726 13.779 13.779 0 003.385 19.185 13.774 13.774 0 0019.184-3.385 33.455 33.455 0 0116.257-12.616 13.776 13.776 0 008.284-17.626zM520.091 359.915l-11.538 11.074-13.443-9.956a15.744 15.744 0 00-22.018 3.286 15.738 15.738 0 003.286 22.018l17.748 13.14v17.642a15.741 15.741 0 1031.482 0v-18.87l16.281-15.623a15.743 15.743 0 00-10.601-27.013 15.743 15.743 0 00-11.197 4.298v.004z" fill="#373D4C"/><path d="M481.773 837.959c-11.77-39.558-83.003-50.21-138.782-59.513a335.875 335.875 0 01-80.965-26.43 4.302 4.302 0 01-.333-7.623 4.3 4.3 0 013.021-.487 683.822 683.822 0 0087.938 13.541c44.615 2.877 99.874 16.772 127.228 33.509a37.427 37.427 0 0019.547 5.647h39.664a36.846 36.846 0 0020.298-6.119c16.76-11.047 56.715-32.994 107.103-30.924 3.746.154 7.477.28 11.227.193 14.01-.319 48.692-1.775 72.496-8.453a4.304 4.304 0 013.719 7.595c-14.781 11.279-35.571 18.74-66.833 19.551-94.054 2.589-125.76 59.513-125.76 59.513h-79.568zM398.53 636.63c11.089 21.065 31.403 46.979 66.664 56.912a5.487 5.487 0 006.69-6.934 272.928 272.928 0 01-8.753-34.674 5.465 5.465 0 019.418-4.683 148.522 148.522 0 0077.434 46.554 5.477 5.477 0 002.937-.198 5.478 5.478 0 003.604-4.378 5.485 5.485 0 00-.37-2.92c-2.983-7.037-7.021-17.178-10.122-27.268a5.47 5.47 0 011.757-5.881 5.463 5.463 0 016.114-.541 155.317 155.317 0 0067.569 19.369 5.481 5.481 0 005.664-4.155 5.479 5.479 0 00-3.082-6.313c-26.977-11.861-70.682-34.453-94.503-64.787a5.444 5.444 0 00-8.354-.272 5.442 5.442 0 00-1.322 2.838 152.72 152.72 0 001.546 49.872 5.467 5.467 0 01-8.705 5.415c-15.993-12.4-43.733-36.661-58.12-65.357a5.462 5.462 0 00-5.062-2.939 5.447 5.447 0 00-2.89.967 5.452 5.452 0 00-1.922 2.365 96.19 96.19 0 00-7.367 48.605 5.477 5.477 0 01-7.595 5.765 101.029 101.029 0 01-22.907-14.131 5.47 5.47 0 00-8.323 6.769z" fill="#C99673"/><path d="M578.9 486.589a58.384 58.384 0 007.662-32.042l-.488-12.648c-11.873 23.431-33.607 45.056-73.5 45.056-52.732 0-72.067-27.008-79.138-48.322v8.866a58.194 58.194 0 001.967 15.419c4.951 18.075 21.778 54.354 77.046 54.354 39.128 0 57.667-15.836 66.451-30.683z" fill="#C12140"/><path d="M291.911 414.636c-10.858 19.94-20.204 44.24-17.677 68.553a2.315 2.315 0 001.453 1.868 2.318 2.318 0 002.336-.377 112.005 112.005 0 0127.594-17.292 2.325 2.325 0 012.875 1.076c.176.331.27.699.274 1.073a94.573 94.573 0 009.326 40.817 2.336 2.336 0 003.959.323 2.34 2.34 0 00.457-1.484c-.579-13.797-.571-40.585 6.214-62.768a2.316 2.316 0 00-.419-2.177 2.313 2.313 0 00-2.061-.818 86.987 86.987 0 00-32.753 11.212 2.305 2.305 0 01-3.459-2.046 224.23 224.23 0 016.202-36.378 2.332 2.332 0 00-1.486-2.635 2.33 2.33 0 00-2.835 1.053zM686.334 439.845c10.853 19.94 20.2 44.245 17.677 68.553a2.329 2.329 0 01-2.675 2.003 2.323 2.323 0 01-1.119-.508 111.983 111.983 0 00-27.594-17.291 2.325 2.325 0 00-2.875 1.076c-.176.33-.27.698-.273 1.072a94.438 94.438 0 01-9.327 40.817 2.338 2.338 0 01-4.415-1.161c.578-13.797.57-40.588-6.214-62.771a2.305 2.305 0 011.344-2.848 2.29 2.29 0 011.135-.143 86.966 86.966 0 0132.754 11.207 2.301 2.301 0 002.326-.011 2.309 2.309 0 001.137-2.031c-.425-11.944-3.456-22.825-6.206-36.378a2.328 2.328 0 011.488-2.631 2.333 2.333 0 012.837 1.045zM862.088 899.979s26.972-20.231 32.368-47.223a196.494 196.494 0 0128.334 14.836 163.6 163.6 0 003.081-44.678 62.915 62.915 0 01-3.609 5.99 11.724 11.724 0 01-7.923 4.999 11.74 11.74 0 01-9.057-2.394l-4.868-3.864a11.667 11.667 0 00-10.067-2.253 11.674 11.674 0 00-7.922 6.609c-33.009 77.919-141.442 70.552-195.769 61.391a66.95 66.95 0 00-52.339 13.34c-39.152 30.581-70.556 15.462-82.433 7.375.221 1.472.457 2.951.736 4.427a40.496 40.496 0 0041.88 32.891c15.19-.862 34.957-6.666 57.915-24.143a46.146 46.146 0 0123.069-9.468 194.144 194.144 0 0159.864 3.703s71.445 21.632 126.74-21.538zM359.511 882.664a117.865 117.865 0 00-42.107-16.749c-21.873-4.037-53.957-8.22-80.674-4.702a42.962 42.962 0 00-26.685 14.56l-9.252 10.626a5.94 5.94 0 01-7.296 1.35c-7.997-4.302-25.072-14.691-31.608-27.98a5.93 5.93 0 00-4.79-3.2 5.918 5.918 0 00-2.931.511 5.915 5.915 0 00-2.314 1.87 134.25 134.25 0 00-10.874 16.67 5.942 5.942 0 01-8.216 2.278 76.308 76.308 0 01-17.52-14.3 134.814 134.814 0 0018.574 40.443l25.623-16.182s8.095 22.927 43.158 31.018l28.334-26.973s52.596-6.745 93.054 8.091c0 0 44.296 30.759 112.904 42.919a40.32 40.32 0 0043.021-20.24c.755-1.456 1.46-3.038 2.129-4.694-19.027 4.199-59.675 4.895-122.53-35.316z" fill="#C99673"/></g><defs><clipPath id="clip0"><rect width="1024" height="1024" rx="180" fill="#fff"/></clipPath></defs></svg>